<?xml version="1.0" encoding="utf-8"?>
<!-- Generator: Adobe Illustrator 26.3.1, SVG Export Plug-In . SVG Version: 6.00 Build 0)  -->
<svg version="1.1" id="Layer_1" xmlns="http://www.w3.org/2000/svg" xmlns:xlink="http://www.w3.org/1999/xlink" x="0px" y="0px"
	 viewBox="0 0 50 50" style="enable-background:new 0 0 50 50;" xml:space="preserve">
<style type="text/css">
	.st0{fill:#FFFFFF;}
	.st1{clip-path:url(#SVGID_00000036231210049626995410000006910132558228295303_);}
	.st2{stroke:#FFFFFF;stroke-width:0.6767;stroke-miterlimit:10;}
	.st3{display:none;fill:#FFFFFF;stroke:#000000;stroke-width:0.4577;stroke-miterlimit:10;}
</style>
<g>
	<path d="M25,42.6c-9.6,0-17.4-7.8-17.5-17.4c-0.1-9.8,8-17.8,17.7-17.7c9.6,0.1,17.4,8,17.4,17.6C42.5,34.7,34.7,42.6,25,42.6z
		 M33,22.1c-0.3,0.2-0.4,0-0.5-0.2c-0.4-0.7-0.7-1.5-1.2-2.2c-0.5-0.9-1.3-1.4-2.4-1.4c-2.6,0-5.2,0-7.8,0c-0.8,0-1.5,0.3-2,1
		c-0.5,0.8-1,1.7-1.5,2.6c-0.1,0.2-0.2,0.3-0.5,0.2c0-0.1,0-0.2,0-0.2c0-0.5-0.1-0.6-0.6-0.6c-0.2,0-0.4,0-0.6,0c-1,0-1,0-1,1
		c0,0.5,0.1,0.6,0.6,0.6c0.5,0,0.9,0,1.4,0C16.8,23,16.8,23,16.8,23c-0.1,0.1-0.1,0.1-0.2,0.2c-0.9,0.8-1.3,1.9-1.2,3.1
		c0.1,1,0.2,2,0.3,2.9c0,0.1,0.2,0.3,0.3,0.4c0.1,0.1,0.2,0.2,0.2,0.3c0,0.4,0,0.8,0,1.2c0,0.5,0.1,0.6,0.6,0.6c0.8,0,1.6,0,2.4,0
		c0.5,0,0.6-0.1,0.6-0.7c0-0.5,0-0.9,0-1.4c3.5,0,6.9,0,10.4,0c0,0.5,0,1,0,1.5c0,0.4,0.1,0.5,0.5,0.5c0.8,0,1.7,0,2.5,0
		c0.4,0,0.5-0.1,0.5-0.5c0-0.5,0-1,0-1.5c0.4-0.1,0.5-0.3,0.5-0.7c0.1-0.9,0.2-1.7,0.3-2.6c0.1-1.2-0.1-2.2-1-3.1
		c-0.1-0.1-0.3-0.3-0.5-0.5c0.4,0,0.7,0,1,0c1.2,0,1.1-0.1,1.1-1.2c0-0.3-0.2-0.4-0.4-0.4c-0.4,0-0.9,0-1.3,0
		c-0.3,0-0.4,0.2-0.5,0.4C32.9,21.8,33,21.9,33,22.1z"/>
	<path class="st0" d="M33,22.1c0-0.1,0-0.2,0-0.4c0-0.3,0.2-0.4,0.5-0.4c0.4,0,0.9,0,1.3,0c0.3,0,0.4,0.2,0.4,0.4
		c0,1.1,0.1,1.2-1.1,1.2c-0.3,0-0.6,0-1,0c0.2,0.2,0.3,0.4,0.5,0.5c0.9,0.9,1.1,1.9,1,3.1c-0.1,0.9-0.2,1.7-0.3,2.6
		c0,0.3-0.2,0.6-0.5,0.7c0,0.5,0,1,0,1.5c0,0.4-0.1,0.5-0.5,0.5c-0.8,0-1.7,0-2.5,0c-0.4,0-0.5-0.1-0.5-0.5c0-0.5,0-1,0-1.5
		c-3.5,0-6.9,0-10.4,0c0,0.5,0,0.9,0,1.4c0,0.5-0.1,0.7-0.6,0.7c-0.8,0-1.6,0-2.4,0c-0.5,0-0.6-0.1-0.6-0.6c0-0.4,0-0.8,0-1.2
		c0-0.1-0.1-0.2-0.2-0.3c-0.1-0.1-0.3-0.3-0.3-0.4c-0.1-1-0.2-2-0.3-2.9c-0.1-1.2,0.3-2.3,1.2-3.1c0.1-0.1,0.1-0.1,0.2-0.2
		c0,0,0,0,0.1-0.1c-0.5,0-0.9,0-1.4,0c-0.5,0-0.6-0.1-0.6-0.6c0-1,0-1,1-1c0.2,0,0.4,0,0.6,0c0.5,0,0.6,0.1,0.6,0.6
		c0,0.1,0,0.1,0,0.2c0.3,0.1,0.4,0,0.5-0.2c0.5-0.9,0.9-1.8,1.5-2.6c0.4-0.7,1.2-1,2-1c2.6,0,5.2,0,7.8,0c1.1,0,1.9,0.5,2.4,1.4
		c0.4,0.7,0.8,1.5,1.2,2.2C32.5,22,32.6,22.2,33,22.1z M18.2,23.4c4.5,0,9,0,13.6,0c-0.4-1.4-0.8-2.8-1.9-3.9
		c-0.4-0.4-1-0.6-1.6-0.6c-2.2,0-4.4,0-6.6,0c-0.8,0-1.4,0.3-1.9,0.9C19,20.8,18.6,22.1,18.2,23.4z M17.6,26.6c0,0.2,0,0.4,0,0.6
		c0,0.4,0.2,0.7,0.6,0.7c0.7,0,1.5,0,2.2,0c0.4,0,0.7-0.2,0.8-0.7c0.1-0.5,0-0.9-0.4-1.1c-0.6-0.3-1.2-0.5-1.8-0.7
		C17.8,25.1,17.6,25.3,17.6,26.6z M32.4,26.6C32.4,26.6,32.4,26.6,32.4,26.6c0-0.2,0-0.4,0-0.6c0-0.4-0.3-0.7-0.7-0.7
		c-0.9,0.1-1.8,0.3-2.5,0.8c-0.5,0.3-0.5,0.7-0.4,1.2c0.1,0.4,0.4,0.6,0.8,0.6c0.7,0,1.4,0,2,0c0.5,0,0.8-0.3,0.8-0.9
		C32.4,26.9,32.4,26.7,32.4,26.6z"/>
	<path d="M18.2,23.4c0.4-1.3,0.8-2.6,1.6-3.7c0.5-0.6,1.1-0.9,1.9-0.9c2.2,0,4.4,0,6.6,0c0.6,0,1.2,0.2,1.6,0.6
		c1.1,1.1,1.5,2.5,1.9,3.9C27.2,23.4,22.7,23.4,18.2,23.4z"/>
	<path d="M17.6,26.6c0-1.2,0.3-1.5,1.5-1.2c0.6,0.2,1.2,0.4,1.8,0.7c0.4,0.2,0.5,0.6,0.4,1.1c-0.1,0.4-0.4,0.7-0.8,0.7
		c-0.7,0-1.5,0-2.2,0c-0.4,0-0.6-0.3-0.6-0.7C17.6,27,17.6,26.8,17.6,26.6z"/>
	<path d="M32.4,26.6c0,0.1,0,0.3,0,0.4c0,0.5-0.3,0.8-0.8,0.9c-0.7,0-1.4,0-2,0c-0.4,0-0.7-0.2-0.8-0.6c-0.1-0.4-0.1-0.9,0.4-1.2
		c0.8-0.5,1.6-0.7,2.5-0.8c0.4,0,0.7,0.3,0.7,0.7C32.4,26.2,32.4,26.4,32.4,26.6C32.4,26.6,32.4,26.6,32.4,26.6z"/>
	<g>
		<defs>
			<path id="SVGID_1_" d="M33,22.1c0-0.1,0-0.2,0-0.4c0-0.3,0.2-0.4,0.5-0.4c0.4,0,0.9,0,1.3,0c0.3,0,0.4,0.2,0.4,0.4
				c0,1.1,0.1,1.2-1.1,1.2c-0.3,0-0.6,0-1,0c0.2,0.2,0.3,0.4,0.5,0.5c0.9,0.9,1.1,1.9,1,3.1c-0.1,0.9-0.2,1.7-0.3,2.6
				c0,0.3-0.2,0.6-0.5,0.7c0,0.5,0,1,0,1.5c0,0.4-0.1,0.5-0.5,0.5c-0.8,0-1.7,0-2.5,0c-0.4,0-0.5-0.1-0.5-0.5c0-0.5,0-1,0-1.5
				c-3.5,0-6.9,0-10.4,0c0,0.5,0,0.9,0,1.4c0,0.5-0.1,0.7-0.6,0.7c-0.8,0-1.6,0-2.4,0c-0.5,0-0.6-0.1-0.6-0.6c0-0.4,0-0.8,0-1.2
				c0-0.1-0.1-0.2-0.2-0.3c-0.1-0.1-0.3-0.3-0.3-0.4c-0.1-1-0.2-2-0.3-2.9c-0.1-1.2,0.3-2.3,1.2-3.1c0.1-0.1,0.1-0.1,0.2-0.2
				c0,0,0,0,0.1-0.1c-0.5,0-0.9,0-1.4,0c-0.5,0-0.6-0.1-0.6-0.6c0-1,0-1,1-1c0.2,0,0.4,0,0.6,0c0.5,0,0.6,0.1,0.6,0.6
				c0,0.1,0,0.1,0,0.2c0.3,0.1,0.4,0,0.5-0.2c0.5-0.9,0.9-1.8,1.5-2.6c0.4-0.7,1.2-1,2-1c2.6,0,5.2,0,7.8,0c1.1,0,1.9,0.5,2.4,1.4
				c0.4,0.7,0.8,1.5,1.2,2.2C32.5,22,32.6,22.2,33,22.1z M18.2,23.4c4.5,0,9,0,13.6,0c-0.4-1.4-0.8-2.8-1.9-3.9
				c-0.4-0.4-1-0.6-1.6-0.6c-2.2,0-4.4,0-6.6,0c-0.8,0-1.4,0.3-1.9,0.9C19,20.8,18.6,22.1,18.2,23.4z M17.6,26.6c0,0.2,0,0.4,0,0.6
				c0,0.4,0.2,0.7,0.6,0.7c0.7,0,1.5,0,2.2,0c0.4,0,0.7-0.2,0.8-0.7c0.1-0.5,0-0.9-0.4-1.1c-0.6-0.3-1.2-0.5-1.8-0.7
				C17.8,25.1,17.6,25.3,17.6,26.6z M32.4,26.6C32.4,26.6,32.4,26.6,32.4,26.6c0-0.2,0-0.4,0-0.6c0-0.4-0.3-0.7-0.7-0.7
				c-0.9,0.1-1.8,0.3-2.5,0.8c-0.5,0.3-0.5,0.7-0.4,1.2c0.1,0.4,0.4,0.6,0.8,0.6c0.7,0,1.4,0,2,0c0.5,0,0.8-0.3,0.8-0.9
				C32.4,26.9,32.4,26.7,32.4,26.6z"/>
		</defs>
		<clipPath id="SVGID_00000008149632155639971490000010502860254688706724_">
			<use xlink:href="#SVGID_1_"  style="overflow:visible;"/>
		</clipPath>
		
			<rect x="16.1" y="24.1" transform="matrix(0.7754 -0.6314 0.6314 0.7754 -14.5888 26.9414)" style="clip-path:url(#SVGID_00000008149632155639971490000010502860254688706724_);" width="28.9" height="19.8"/>
		<use xlink:href="#SVGID_1_"  style="overflow:visible;fill:none;stroke:#FFFFFF;stroke-width:0.25;stroke-miterlimit:10;"/>
	</g>
</g>
<ellipse cx="25.9" cy="25" rx="12.4" ry="11.6"/>
<g>
	<path class="st0" d="M15.3,17.1c3.7,0,7-0.9,9.7-3.7c1.3,1.3,2.7,2.3,4.4,2.9c1.7,0.6,3.4,0.8,5.2,0.8c1,7-1.7,15.3-9.3,19.4
		c-0.2,0.1-0.5,0.1-0.7,0c-5-2.8-8-7-9.1-12.6C15.1,21.7,15,19.4,15.3,17.1z M33.8,18.1c-3.3-0.1-6.3-1-8.8-3.2
		c-2.5,2.2-5.5,3.2-8.8,3.2c-0.1,1.8-0.1,3.5,0.2,5.2c0.9,5.2,3.6,9.3,8.1,12c0.3,0.2,0.6,0.2,0.9,0c1.6-1,3-2.2,4.3-3.6
		C33,27.7,34.1,23.2,33.8,18.1z"/>
	<path class="st2" d="M32.8,19c0.2,2,0,3.9-0.5,5.8c-1,3.9-3.3,7-6.7,9.3c-0.4,0.3-0.7,0.2-1.1,0c-4.1-2.7-6.4-6.5-7.1-11.3
		c-0.2-1.2-0.2-2.5-0.3-3.7c3-0.1,5.6-1,7.9-2.9C27.3,17.9,29.9,18.8,32.8,19z"/>
</g>
<path class="st0" d="M28.9,22.5c0-0.1,0-0.1,0-0.2c0-0.1,0.1-0.2,0.2-0.2c0.2,0,0.4,0,0.6,0c0.1,0,0.2,0.1,0.2,0.2
	c0,0.5,0.1,0.6-0.5,0.6c-0.1,0-0.3,0-0.5,0c0.1,0.1,0.2,0.2,0.2,0.3c0.4,0.4,0.6,1,0.5,1.6c-0.1,0.4-0.1,0.8-0.1,1.3
	c0,0.2-0.1,0.3-0.3,0.3c0,0.3,0,0.5,0,0.7c0,0.2-0.1,0.3-0.3,0.3c-0.4,0-0.8,0-1.2,0c-0.2,0-0.3-0.1-0.3-0.3c0-0.2,0-0.5,0-0.7
	c-1.7,0-3.4,0-5.2,0c0,0.2,0,0.5,0,0.7c0,0.3-0.1,0.3-0.3,0.3c-0.4,0-0.8,0-1.2,0c-0.2,0-0.3-0.1-0.3-0.3c0-0.2,0-0.4,0-0.6
	c0-0.1-0.1-0.1-0.1-0.2c0-0.1-0.1-0.1-0.1-0.2c-0.1-0.5-0.1-1-0.2-1.5c-0.1-0.6,0.1-1.1,0.6-1.5c0,0,0.1-0.1,0.1-0.1c0,0,0,0,0-0.1
	c-0.2,0-0.5,0-0.7,0c-0.2,0-0.3-0.1-0.3-0.3c0-0.5,0-0.5,0.5-0.5c0.1,0,0.2,0,0.3,0c0.2,0,0.3,0,0.3,0.3c0,0,0,0.1,0,0.1
	c0.1,0.1,0.2,0,0.3-0.1c0.2-0.4,0.5-0.9,0.7-1.3c0.2-0.3,0.6-0.5,1-0.5c1.3,0,2.6,0,3.9,0c0.6,0,0.9,0.2,1.2,0.7
	c0.2,0.4,0.4,0.7,0.6,1.1C28.7,22.5,28.8,22.6,28.9,22.5z M21.6,23.2c2.3,0,4.5,0,6.7,0c-0.2-0.7-0.4-1.4-0.9-2
	c-0.2-0.2-0.5-0.3-0.8-0.3c-1.1,0-2.2,0-3.3,0c-0.4,0-0.7,0.2-0.9,0.5C22,21.9,21.8,22.5,21.6,23.2z M21.3,24.8c0,0.1,0,0.2,0,0.3
	c0,0.2,0.1,0.3,0.3,0.4c0.4,0,0.7,0,1.1,0c0.2,0,0.4-0.1,0.4-0.3c0.1-0.2,0-0.4-0.2-0.6c-0.3-0.1-0.6-0.3-0.9-0.3
	C21.4,24,21.3,24.2,21.3,24.8z M28.7,24.8C28.7,24.8,28.7,24.8,28.7,24.8c0-0.1,0-0.2,0-0.3c0-0.2-0.2-0.4-0.3-0.3
	c-0.4,0-0.9,0.2-1.3,0.4c-0.2,0.1-0.2,0.4-0.2,0.6c0,0.2,0.2,0.3,0.4,0.3c0.3,0,0.7,0,1,0c0.3,0,0.4-0.2,0.4-0.4
	C28.7,24.9,28.7,24.8,28.7,24.8z"/>
<path class="st3" d="M21.1,25.1c0.3-0.3,0.7-0.6,1-0.9c0.6,0.5,1.2,0.9,1.8,1.4c1.3-1.6,2.9-2.9,4.7-4c0.1,0.1,0.1,0.2,0.2,0.3
	c0.1,0.1,0.1,0.2,0.2,0.3c-1.9,1.8-3.4,3.9-4.5,6.2C23.3,27.3,22.2,26.2,21.1,25.1z"/>
</svg>
