<?xml version="1.0" encoding="utf-8"?>
<!-- Generator: Adobe Illustrator 26.3.1, SVG Export Plug-In . SVG Version: 6.00 Build 0)  -->
<svg version="1.1" id="Layer_1" xmlns="http://www.w3.org/2000/svg" xmlns:xlink="http://www.w3.org/1999/xlink" x="0px" y="0px"
	 viewBox="0 0 50 50" style="enable-background:new 0 0 50 50;" xml:space="preserve">
<style type="text/css">
	.st0{fill:#FFFFFF;}
	.st1{clip-path:url(#SVGID_00000056404847472675425620000015016817825299663293_);}
	.st2{stroke:#FFFFFF;stroke-width:0.5;stroke-miterlimit:10;}
	.st3{clip-path:url(#SVGID_00000054972543851703484910000018425728894415387268_);}
</style>
<g>
	<path d="M25,42.6c-9.6,0-17.4-7.8-17.5-17.4c-0.1-9.8,8-17.8,17.7-17.7c9.6,0.1,17.4,8,17.4,17.6C42.5,34.7,34.7,42.6,25,42.6z
		 M33,22.1c-0.3,0.2-0.4,0-0.5-0.2c-0.4-0.7-0.7-1.5-1.2-2.2c-0.5-0.9-1.3-1.4-2.4-1.4c-2.6,0-5.2,0-7.8,0c-0.8,0-1.5,0.3-2,1
		c-0.5,0.8-1,1.7-1.5,2.6c-0.1,0.2-0.2,0.3-0.5,0.2c0-0.1,0-0.2,0-0.2c0-0.5-0.1-0.6-0.6-0.6c-0.2,0-0.4,0-0.6,0c-1,0-1,0-1,1
		c0,0.5,0.1,0.6,0.6,0.6c0.5,0,0.9,0,1.4,0C16.8,23,16.8,23,16.8,23c-0.1,0.1-0.1,0.1-0.2,0.2c-0.9,0.8-1.3,1.9-1.2,3.1
		c0.1,1,0.2,2,0.3,2.9c0,0.1,0.2,0.3,0.3,0.4c0.1,0.1,0.2,0.2,0.2,0.3c0,0.4,0,0.8,0,1.2c0,0.5,0.1,0.6,0.6,0.6c0.8,0,1.6,0,2.4,0
		c0.5,0,0.6-0.1,0.6-0.7c0-0.5,0-0.9,0-1.4c3.5,0,6.9,0,10.4,0c0,0.5,0,1,0,1.5c0,0.4,0.1,0.5,0.5,0.5c0.8,0,1.7,0,2.5,0
		c0.4,0,0.5-0.1,0.5-0.5c0-0.5,0-1,0-1.5c0.4-0.1,0.5-0.3,0.5-0.7c0.1-0.9,0.2-1.7,0.3-2.6c0.1-1.2-0.1-2.2-1-3.1
		c-0.1-0.1-0.3-0.3-0.5-0.5c0.4,0,0.7,0,1,0c1.2,0,1.1-0.1,1.1-1.2c0-0.3-0.2-0.4-0.4-0.4c-0.4,0-0.9,0-1.3,0
		c-0.3,0-0.4,0.2-0.5,0.4C32.9,21.8,33,21.9,33,22.1z"/>
	<path class="st0" d="M33,22.1c0-0.1,0-0.2,0-0.4c0-0.3,0.2-0.4,0.5-0.4c0.4,0,0.9,0,1.3,0c0.3,0,0.4,0.2,0.4,0.4
		c0,1.1,0.1,1.2-1.1,1.2c-0.3,0-0.6,0-1,0c0.2,0.2,0.3,0.4,0.5,0.5c0.9,0.9,1.1,1.9,1,3.1c-0.1,0.9-0.2,1.7-0.3,2.6
		c0,0.3-0.2,0.6-0.5,0.7c0,0.5,0,1,0,1.5c0,0.4-0.1,0.5-0.5,0.5c-0.8,0-1.7,0-2.5,0c-0.4,0-0.5-0.1-0.5-0.5c0-0.5,0-1,0-1.5
		c-3.5,0-6.9,0-10.4,0c0,0.5,0,0.9,0,1.4c0,0.5-0.1,0.7-0.6,0.7c-0.8,0-1.6,0-2.4,0c-0.5,0-0.6-0.1-0.6-0.6c0-0.4,0-0.8,0-1.2
		c0-0.1-0.1-0.2-0.2-0.3c-0.1-0.1-0.3-0.3-0.3-0.4c-0.1-1-0.2-2-0.3-2.9c-0.1-1.2,0.3-2.3,1.2-3.1c0.1-0.1,0.1-0.1,0.2-0.2
		c0,0,0,0,0.1-0.1c-0.5,0-0.9,0-1.4,0c-0.5,0-0.6-0.1-0.6-0.6c0-1,0-1,1-1c0.2,0,0.4,0,0.6,0c0.5,0,0.6,0.1,0.6,0.6
		c0,0.1,0,0.1,0,0.2c0.3,0.1,0.4,0,0.5-0.2c0.5-0.9,0.9-1.8,1.5-2.6c0.4-0.7,1.2-1,2-1c2.6,0,5.2,0,7.8,0c1.1,0,1.9,0.5,2.4,1.4
		c0.4,0.7,0.8,1.5,1.2,2.2C32.5,22,32.6,22.2,33,22.1z M18.2,23.4c4.5,0,9,0,13.6,0c-0.4-1.4-0.8-2.8-1.9-3.9
		c-0.4-0.4-1-0.6-1.6-0.6c-2.2,0-4.4,0-6.6,0c-0.8,0-1.4,0.3-1.9,0.9C19,20.8,18.6,22.1,18.2,23.4z M17.6,26.6c0,0.2,0,0.4,0,0.6
		c0,0.4,0.2,0.7,0.6,0.7c0.7,0,1.5,0,2.2,0c0.4,0,0.7-0.2,0.8-0.7c0.1-0.5,0-0.9-0.4-1.1c-0.6-0.3-1.2-0.5-1.8-0.7
		C17.8,25.1,17.6,25.3,17.6,26.6z M32.4,26.6C32.4,26.6,32.4,26.6,32.4,26.6c0-0.2,0-0.4,0-0.6c0-0.4-0.3-0.7-0.7-0.7
		c-0.9,0.1-1.8,0.3-2.5,0.8c-0.5,0.3-0.5,0.7-0.4,1.2c0.1,0.4,0.4,0.6,0.8,0.6c0.7,0,1.4,0,2,0c0.5,0,0.8-0.3,0.8-0.9
		C32.4,26.9,32.4,26.7,32.4,26.6z"/>
	<path d="M18.2,23.4c0.4-1.3,0.8-2.6,1.6-3.7c0.5-0.6,1.1-0.9,1.9-0.9c2.2,0,4.4,0,6.6,0c0.6,0,1.2,0.2,1.6,0.6
		c1.1,1.1,1.5,2.5,1.9,3.9C27.2,23.4,22.7,23.4,18.2,23.4z"/>
	<path d="M17.6,26.6c0-1.2,0.3-1.5,1.5-1.2c0.6,0.2,1.2,0.4,1.8,0.7c0.4,0.2,0.5,0.6,0.4,1.1c-0.1,0.4-0.4,0.7-0.8,0.7
		c-0.7,0-1.5,0-2.2,0c-0.4,0-0.6-0.3-0.6-0.7C17.6,27,17.6,26.8,17.6,26.6z"/>
	<path d="M32.4,26.6c0,0.1,0,0.3,0,0.4c0,0.5-0.3,0.8-0.8,0.9c-0.7,0-1.4,0-2,0c-0.4,0-0.7-0.2-0.8-0.6c-0.1-0.4-0.1-0.9,0.4-1.2
		c0.8-0.5,1.6-0.7,2.5-0.8c0.4,0,0.7,0.3,0.7,0.7C32.4,26.2,32.4,26.4,32.4,26.6C32.4,26.6,32.4,26.6,32.4,26.6z"/>
	<g>
		<defs>
			<path id="SVGID_1_" d="M33,22.1c0-0.1,0-0.2,0-0.4c0-0.3,0.2-0.4,0.5-0.4c0.4,0,0.9,0,1.3,0c0.3,0,0.4,0.2,0.4,0.4
				c0,1.1,0.1,1.2-1.1,1.2c-0.3,0-0.6,0-1,0c0.2,0.2,0.3,0.4,0.5,0.5c0.9,0.9,1.1,1.9,1,3.1c-0.1,0.9-0.2,1.7-0.3,2.6
				c0,0.3-0.2,0.6-0.5,0.7c0,0.5,0,1,0,1.5c0,0.4-0.1,0.5-0.5,0.5c-0.8,0-1.7,0-2.5,0c-0.4,0-0.5-0.1-0.5-0.5c0-0.5,0-1,0-1.5
				c-3.5,0-6.9,0-10.4,0c0,0.5,0,0.9,0,1.4c0,0.5-0.1,0.7-0.6,0.7c-0.8,0-1.6,0-2.4,0c-0.5,0-0.6-0.1-0.6-0.6c0-0.4,0-0.8,0-1.2
				c0-0.1-0.1-0.2-0.2-0.3c-0.1-0.1-0.3-0.3-0.3-0.4c-0.1-1-0.2-2-0.3-2.9c-0.1-1.2,0.3-2.3,1.2-3.1c0.1-0.1,0.1-0.1,0.2-0.2
				c0,0,0,0,0.1-0.1c-0.5,0-0.9,0-1.4,0c-0.5,0-0.6-0.1-0.6-0.6c0-1,0-1,1-1c0.2,0,0.4,0,0.6,0c0.5,0,0.6,0.1,0.6,0.6
				c0,0.1,0,0.1,0,0.2c0.3,0.1,0.4,0,0.5-0.2c0.5-0.9,0.9-1.8,1.5-2.6c0.4-0.7,1.2-1,2-1c2.6,0,5.2,0,7.8,0c1.1,0,1.9,0.5,2.4,1.4
				c0.4,0.7,0.8,1.5,1.2,2.2C32.5,22,32.6,22.2,33,22.1z M18.2,23.4c4.5,0,9,0,13.6,0c-0.4-1.4-0.8-2.8-1.9-3.9
				c-0.4-0.4-1-0.6-1.6-0.6c-2.2,0-4.4,0-6.6,0c-0.8,0-1.4,0.3-1.9,0.9C19,20.8,18.6,22.1,18.2,23.4z M17.6,26.6c0,0.2,0,0.4,0,0.6
				c0,0.4,0.2,0.7,0.6,0.7c0.7,0,1.5,0,2.2,0c0.4,0,0.7-0.2,0.8-0.7c0.1-0.5,0-0.9-0.4-1.1c-0.6-0.3-1.2-0.5-1.8-0.7
				C17.8,25.1,17.6,25.3,17.6,26.6z M32.4,26.6C32.4,26.6,32.4,26.6,32.4,26.6c0-0.2,0-0.4,0-0.6c0-0.4-0.3-0.7-0.7-0.7
				c-0.9,0.1-1.8,0.3-2.5,0.8c-0.5,0.3-0.5,0.7-0.4,1.2c0.1,0.4,0.4,0.6,0.8,0.6c0.7,0,1.4,0,2,0c0.5,0,0.8-0.3,0.8-0.9
				C32.4,26.9,32.4,26.7,32.4,26.6z"/>
		</defs>
		<clipPath id="SVGID_00000112631234116782788340000008849021534872149412_">
			<use xlink:href="#SVGID_1_"  style="overflow:visible;"/>
		</clipPath>
		
			<rect x="16.1" y="24.1" transform="matrix(0.7754 -0.6314 0.6314 0.7754 -14.5888 26.9414)" style="clip-path:url(#SVGID_00000112631234116782788340000008849021534872149412_);" width="28.9" height="19.8"/>
		<use xlink:href="#SVGID_1_"  style="overflow:visible;fill:none;stroke:#FFFFFF;stroke-width:0.25;stroke-miterlimit:10;"/>
	</g>
</g>
<g>
	<path d="M38.1,32.5c-0.1,0.2-0.3,0.3-0.5,0.3c-8.1,0-16.2,0-24.3,0c-0.4,0-0.5-0.1-0.5-0.5c0-4.8,0-9.6,0-14.4
		c0-0.4,0.1-0.5,0.5-0.5c4.5,0,9,0,13.5,0c5.2,0,9.9,3.8,11.1,8.9c0.1,0.5,0.2,1,0.3,1.6c0,0.1,0,0.1,0,0.2
		C38.1,29.4,38.1,31,38.1,32.5z M13.6,31.9c7.9,0,15.8,0,23.8,0c0-1.2,0-2.3,0-3.4c0-1-0.2-1.9-0.5-2.9c-1.4-4.5-5.5-7.5-10.3-7.6
		c-4.2,0-8.5,0-12.7,0c-0.1,0-0.2,0-0.3,0C13.6,22.7,13.6,27.3,13.6,31.9z"/>
	<path class="st0" d="M13.6,31.9c0-4.6,0-9.2,0-13.8c0.1,0,0.2,0,0.3,0c4.2,0,8.5,0,12.7,0c4.8,0,8.9,3.1,10.3,7.6
		c0.3,0.9,0.5,1.9,0.5,2.9c0,1.1,0,2.3,0,3.4C29.4,31.9,21.5,31.9,13.6,31.9z M26.8,31.5c3.2,0,6.4,0,9.6,0c0.4,0,0.5-0.1,0.5-0.5
		c0-0.7,0-1.5,0-2.2c0-2.4-0.7-4.6-2.2-6.4c-2-2.5-4.7-3.9-7.9-3.9c-4.1,0-8.3,0-12.4,0c-0.3,0-0.4,0.1-0.4,0.5c0,3.1,0,6.2,0,9.4
		c0,0.2,0.1,0.3,0.2,0.4c0.9,0.9,1.7,1.7,2.6,2.6c0.1,0.2,0.3,0.2,0.5,0.2C20.4,31.5,23.6,31.5,26.8,31.5z"/>
	<path d="M26.8,31.5c-3.2,0-6.4,0-9.6,0c-0.2,0-0.4-0.1-0.5-0.2c-0.9-0.9-1.7-1.7-2.6-2.6C14,28.6,14,28.5,14,28.3
		c0-3.1,0-6.2,0-9.4c0-0.3,0.1-0.5,0.4-0.5c4.1,0,8.3,0,12.4,0c3.2,0,5.9,1.4,7.9,3.9c1.5,1.9,2.2,4,2.2,6.4c0,0.7,0,1.5,0,2.2
		c0,0.4-0.1,0.5-0.5,0.5C33.2,31.5,30,31.5,26.8,31.5z M14.8,19.3c0,2.9,0,5.8,0,8.7c0.8,0,1.6,0,2.3,0c0.3,0,0.4,0.1,0.4,0.4
		c0,0.3,0,0.6,0,0.8c0,0.5,0,1,0,1.5c6.2,0,12.4,0,18.6,0c0-0.7,0-1.3,0-2c0-1.1-0.2-2.2-0.6-3.3c-1.5-3.8-4.9-6.1-9-6.2
		c-3.8,0-7.7,0-11.5,0C14.9,19.3,14.9,19.3,14.8,19.3z M16.7,30.1c0-0.4,0-0.9,0-1.3c-0.5,0-0.9,0-1.3,0
		C15.8,29.2,16.3,29.7,16.7,30.1z"/>
	<path class="st2" d="M14.8,19.3c0.1,0,0.2,0,0.3,0c3.8,0,7.7,0,11.5,0c4,0,7.5,2.4,9,6.2c0.4,1.1,0.6,2.2,0.6,3.3c0,0.7,0,1.3,0,2
		c-6.2,0-12.4,0-18.6,0c0-0.5,0-1,0-1.5c0-0.3,0-0.6,0-0.8c0-0.3-0.1-0.4-0.4-0.4c-0.8,0-1.5,0-2.3,0C14.8,25.1,14.8,22.2,14.8,19.3
		z"/>
	<g>
		<defs>
			<path id="SVGID_00000116227492214512267070000008907349528568888487_" d="M14.8,19.3c0.1,0,0.2,0,0.3,0c3.8,0,7.7,0,11.5,0
				c4,0,7.5,2.4,9,6.2c0.4,1.1,0.6,2.2,0.6,3.3c0,0.7,0,1.3,0,2c-6.2,0-12.4,0-18.6,0c0-0.5,0-1,0-1.5c0-0.3,0-0.6,0-0.8
				c0-0.3-0.1-0.4-0.4-0.4c-0.8,0-1.5,0-2.3,0C14.8,25.1,14.8,22.2,14.8,19.3z"/>
		</defs>
		<clipPath id="SVGID_00000176749493256746377210000014076891403230364090_">
			<use xlink:href="#SVGID_00000116227492214512267070000008907349528568888487_"  style="overflow:visible;"/>
		</clipPath>
		<g style="clip-path:url(#SVGID_00000176749493256746377210000014076891403230364090_);">
			
				<rect x="28.6" y="17.1" transform="matrix(0.7645 -0.6447 0.6447 0.7645 -9.2354 24.6662)" class="st0" width="1.1" height="15.8"/>
			
				<rect x="18.1" y="17.4" transform="matrix(0.7644 -0.6447 0.6447 0.7644 -11.9917 19.1685)" class="st0" width="4.3" height="17.1"/>
			
				<rect x="24.7" y="16.8" transform="matrix(0.7611 -0.6486 0.6486 0.7611 -10.138 22.6794)" class="st0" width="2.1" height="16.5"/>
			<rect x="31.7" y="16" transform="matrix(0.7644 -0.6447 0.6447 0.7644 -7.4497 27.3655)" class="st0" width="4" height="15.8"/>
		</g>
	</g>
	<path class="st0" d="M16.7,30.1c-0.4-0.4-0.9-0.9-1.3-1.3c0.4,0,0.9,0,1.3,0C16.7,29.2,16.7,29.7,16.7,30.1z"/>
</g>
</svg>
