<?xml version="1.0" encoding="utf-8"?>
<!-- Generator: Adobe Illustrator 26.3.1, SVG Export Plug-In . SVG Version: 6.00 Build 0)  -->
<svg version="1.1" id="Layer_1" xmlns="http://www.w3.org/2000/svg" xmlns:xlink="http://www.w3.org/1999/xlink" x="0px" y="0px"
	 viewBox="0 0 50 50" style="enable-background:new 0 0 50 50;" xml:space="preserve">
<style type="text/css">
	.st0{display:none;fill:#FFFFFF;}
	.st1{fill:#FFFFFF;}
</style>
<g>
	<path d="M25,42.6c-9.6,0-17.4-7.8-17.5-17.4c-0.1-9.8,8-17.8,17.7-17.7c9.6,0.1,17.4,8,17.4,17.6C42.5,34.7,34.7,42.6,25,42.6z
		 M33,22.1c-0.3,0.2-0.4,0-0.5-0.2c-0.4-0.7-0.7-1.5-1.2-2.2c-0.5-0.9-1.3-1.4-2.4-1.4c-2.6,0-5.2,0-7.8,0c-0.8,0-1.5,0.3-2,1
		c-0.5,0.8-1,1.7-1.5,2.6c-0.1,0.2-0.2,0.3-0.5,0.2c0-0.1,0-0.2,0-0.2c0-0.5-0.1-0.6-0.6-0.6c-0.2,0-0.4,0-0.6,0c-1,0-1,0-1,1
		c0,0.5,0.1,0.6,0.6,0.6s0.9,0,1.4,0C16.8,23,16.8,23,16.8,23c-0.1,0.1-0.1,0.1-0.2,0.2c-0.9,0.8-1.3,1.9-1.2,3.1
		c0.1,1,0.2,2,0.3,2.9c0,0.1,0.2,0.3,0.3,0.4c0.1,0.1,0.2,0.2,0.2,0.3c0,0.4,0,0.8,0,1.2c0,0.5,0.1,0.6,0.6,0.6c0.8,0,1.6,0,2.4,0
		c0.5,0,0.6-0.1,0.6-0.7c0-0.5,0-0.9,0-1.4c3.5,0,6.9,0,10.4,0c0,0.5,0,1,0,1.5c0,0.4,0.1,0.5,0.5,0.5c0.8,0,1.7,0,2.5,0
		c0.4,0,0.5-0.1,0.5-0.5c0-0.5,0-1,0-1.5c0.4-0.1,0.5-0.3,0.5-0.7c0.1-0.9,0.2-1.7,0.3-2.6c0.1-1.2-0.1-2.2-1-3.1
		c-0.1-0.1-0.3-0.3-0.5-0.5c0.4,0,0.7,0,1,0c1.2,0,1.1-0.1,1.1-1.2c0-0.3-0.2-0.4-0.4-0.4c-0.4,0-0.9,0-1.3,0
		c-0.3,0-0.4,0.2-0.5,0.4C32.9,21.8,33,21.9,33,22.1z"/>
	<path d="M32.4,26.6c0,0.1,0,0.3,0,0.4c0,0.5-0.3,0.8-0.8,0.9c-0.7,0-1.4,0-2,0c-0.4,0-0.7-0.2-0.8-0.6c-0.1-0.4-0.1-0.9,0.4-1.2
		c0.8-0.5,1.6-0.7,2.5-0.8c0.4,0,0.7,0.3,0.7,0.7C32.4,26.2,32.4,26.4,32.4,26.6L32.4,26.6z"/>
	<path class="st0" d="M19.3,32.2h-2.4c-0.6,0-0.9-0.2-0.9-0.9v-1.2c0,0-0.1-0.1-0.1-0.1c-0.2-0.2-0.4-0.4-0.4-0.6
		c-0.1-1-0.2-2-0.3-2.9c-0.1-1.2,0.3-2.4,1.1-3.2h-0.8c-0.6,0-0.9-0.2-0.9-0.9c0-1.1,0.1-1.2,1.2-1.2h0.6c0.6,0,0.8,0.2,0.8,0.8
		c0,0,0,0,0-0.1c0.1-0.3,0.3-0.5,0.4-0.8c0.3-0.7,0.7-1.3,1.1-1.9c0.4-0.7,1.2-1.1,2.2-1.1H29c1.2,0,2.1,0.5,2.6,1.5
		c0.2,0.3,0.4,0.7,0.6,1.1c0.2,0.3,0.4,0.7,0.5,1v-0.2c0-0.2,0.1-0.7,0.8-0.7h1.3c0.4,0,0.7,0.3,0.7,0.7l0,0.2c0,0.5,0,0.8-0.2,1
		c-0.2,0.2-0.6,0.2-1.2,0.2h-0.4c0,0,0,0,0,0c0,0,0,0,0.1,0c0.9,0.9,1.2,1.9,1.1,3.3c-0.1,0.5-0.1,0.9-0.2,1.4
		c0,0.4-0.1,0.8-0.1,1.2c0,0.3-0.2,0.7-0.5,0.8v1.3c0,0.5-0.2,0.8-0.8,0.8h-2.5c-0.5,0-0.8-0.2-0.8-0.8V30h-9.9v1.2
		C20.1,31.7,20,32.2,19.3,32.2z M16,21.8c-0.8,0-0.8,0-0.8,0.8c0,0.4,0,0.4,0.4,0.4H17c0.1,0,0.2,0.1,0.2,0.2s0,0.2-0.1,0.3
		l-0.3,0.3c-0.8,0.7-1.2,1.7-1.1,2.9c0.1,0.9,0.2,1.9,0.3,2.9c0,0,0.1,0.1,0.2,0.2c0.1,0.1,0.3,0.3,0.3,0.5v1.2c0,0.4,0,0.4,0.4,0.4
		h2.4c0.3,0,0.4,0,0.4-0.5v-1.4c0-0.1,0.1-0.2,0.2-0.2h10.4c0.1,0,0.2,0.1,0.2,0.2v1.5c0,0.2,0,0.2,0,0.2c0,0,0,0,0.2,0h2.5
		c0.2,0,0.2,0,0.2,0c0,0,0,0,0-0.2v-1.5c0-0.1,0.1-0.2,0.2-0.2c0.2-0.1,0.3-0.3,0.3-0.5c0-0.5,0.1-0.9,0.1-1.3
		c0.1-0.4,0.1-0.9,0.2-1.4c0.1-1.3-0.2-2.1-0.9-2.9c-0.2-0.1-0.3-0.2-0.4-0.3c0-0.1-0.1-0.1-0.2-0.2c-0.1-0.1-0.1-0.2-0.1-0.3
		c0-0.1,0.1-0.2,0.2-0.2h1c0.2,0,0.7,0,0.8-0.1c0.1-0.1,0.1-0.3,0.1-0.6l0-0.2c0-0.1-0.1-0.2-0.2-0.2h-1.3c-0.2,0-0.2,0.1-0.2,0.2
		v0.4c0,0.1-0.1,0.2-0.2,0.2c-0.2,0.1-0.4,0-0.5,0c0,0-0.1,0-0.1-0.1c0,0-0.1-0.1-0.1-0.1c0,0,0,0,0-0.1c-0.2-0.3-0.4-0.7-0.5-1
		c-0.2-0.4-0.4-0.7-0.6-1.1c-0.5-0.8-1.2-1.3-2.1-1.3c0.4,0.1,0.8,0.3,1,0.6c1.1,1.1,1.6,2.6,2,4c0,0.1,0,0.2,0,0.2
		c0,0.1-0.1,0.1-0.2,0.1H18.2c-0.1,0-0.2,0-0.2-0.1c0-0.1-0.1-0.1,0-0.2c0.4-1.3,0.8-2.6,1.6-3.7c0.4-0.4,0.8-0.7,1.3-0.9
		c-0.7,0.1-1.2,0.4-1.5,0.9c-0.4,0.6-0.8,1.2-1.1,1.8c-0.1,0.3-0.3,0.5-0.4,0.8c-0.1,0.2-0.3,0.5-0.8,0.3c-0.1,0-0.2-0.1-0.2-0.2
		v-0.2c0-0.4,0-0.4-0.4-0.4H16z M18.5,23.1h12.9c-0.4-1.3-0.8-2.5-1.7-3.5c-0.3-0.3-0.9-0.5-1.4-0.5h-6.6c-0.7,0-1.2,0.3-1.7,0.8
		C19.3,20.8,18.9,22,18.5,23.1z M33,22.1L33,22.1L33,22.1z M31.6,28.2h-2c-0.5,0-0.9-0.3-1-0.8c-0.1-0.5-0.1-1.1,0.5-1.5
		c0.8-0.6,1.9-0.8,2.6-0.8c0,0,0,0,0,0c0.6,0,1,0.4,1,0.9v1C32.7,27.7,32.3,28.2,31.6,28.2z M31.7,25.5c-0.6,0.1-1.6,0.2-2.4,0.8
		C29,26.5,29,26.8,29,27.3c0.1,0.3,0.3,0.4,0.6,0.4h2c0.2,0,0.6-0.1,0.6-0.7v-1C32.2,25.7,32,25.5,31.7,25.5z M20.4,28.2h-2.2
		c-0.5,0-0.9-0.4-0.9-1v-0.6c0-0.7,0.1-1.2,0.4-1.4c0.3-0.2,0.7-0.2,1.3,0c0.6,0.2,1.2,0.4,1.9,0.7c0.3,0.1,0.7,0.5,0.5,1.4
		C21.3,27.8,21,28.2,20.4,28.2z M18.3,25.5c-0.1,0-0.2,0-0.2,0.1c-0.2,0.1-0.2,0.6-0.2,1v0.6c0,0.2,0.1,0.5,0.4,0.5h2.2
		c0.3,0,0.5-0.2,0.6-0.5c0.1-0.6-0.1-0.7-0.3-0.8c-0.6-0.3-1.2-0.5-1.8-0.7C18.7,25.6,18.4,25.5,18.3,25.5z"/>
	<path class="st1" d="M35.3,22.9c0.2-0.2,0.2-0.5,0.2-1l0-0.2c0-0.4-0.3-0.7-0.7-0.7h-1.3c-0.7,0-0.8,0.5-0.8,0.7v0.2
		c-0.2-0.3-0.4-0.6-0.5-1c-0.2-0.4-0.4-0.8-0.6-1.1c-0.6-1-1.5-1.5-2.6-1.5h-7.8c-1,0-1.8,0.4-2.2,1.1c-0.4,0.6-0.8,1.2-1.1,1.9
		c-0.1,0.3-0.3,0.5-0.4,0.8c0,0,0,0,0,0.1c0-0.6-0.2-0.8-0.8-0.8H16c-1.1,0-1.2,0.1-1.2,1.2c0,0.6,0.2,0.9,0.9,0.9h0.8
		c-0.8,0.8-1.2,1.9-1.1,3.2c0.1,0.9,0.2,1.9,0.3,2.9c0,0.2,0.1,0.3,0.4,0.6c0,0,0.1,0.1,0.1,0.1v1.2c0,0.6,0.2,0.9,0.9,0.9h2.4
		c0.7,0,0.9-0.5,0.9-1V30H30v1.2c0,0.5,0.2,0.8,0.8,0.8h2.5c0.5,0,0.8-0.2,0.8-0.8V30c0.3-0.2,0.5-0.5,0.5-0.8
		c0-0.4,0.1-0.8,0.1-1.2c0.1-0.4,0.1-0.9,0.2-1.4c0.1-1.4-0.2-2.4-1.1-3.3c0,0,0,0-0.1,0c0,0,0,0,0,0h0.4
		C34.7,23.1,35,23.1,35.3,22.9z"/>
	<path d="M17.6,26.6c0-1.2,0.3-1.5,1.5-1.2c0.6,0.2,1.2,0.4,1.8,0.7c0.4,0.2,0.5,0.6,0.4,1.1c-0.1,0.4-0.4,0.7-0.8,0.7
		c-0.7,0-1.5,0-2.2,0c-0.4,0-0.6-0.3-0.6-0.7C17.6,27,17.6,26.8,17.6,26.6z"/>
	<g>
		<path d="M35.2,21.7c0-0.2-0.1-0.4-0.4-0.4c-0.4,0-0.9,0-1.3,0c-0.3,0-0.5,0.1-0.5,0.4c0,0.2,0,0.3,0,0.4c-0.2,0.1-0.4,0-0.4,0
			c-0.1-0.2-0.2-0.4-0.3-0.6l-0.8,0.6c-0.3-0.9-0.7-1.8-1.5-2.5c-0.4-0.4-1-0.6-1.6-0.6c-2.2,0-4.4,0-6.6,0c-0.8,0-1.4,0.3-1.9,0.9
			c-0.8,1.1-1.2,2.4-1.6,3.7c3.8,0,7.6,0,11.4-0.1L22,29.8c2.8,0,5.5,0,8.3,0c0,0.5,0,1,0,1.5c0,0.4,0.1,0.5,0.5,0.5
			c0.8,0,1.7,0,2.5,0c0.4,0,0.5-0.1,0.5-0.5c0-0.5,0-1,0-1.5c0.3-0.1,0.5-0.4,0.5-0.7c0.1-0.9,0.2-1.7,0.3-2.6
			c0.1-1.2-0.1-2.2-1-3.1c-0.2-0.1-0.3-0.3-0.5-0.5c0.4,0,0.7,0,1,0C35.3,22.9,35.2,22.8,35.2,21.7z M32.4,26.6c0,0.1,0,0.3,0,0.4
			c0,0.6-0.3,0.9-0.8,0.9c-0.6,0-1.3,0-2,0c-0.4,0-0.7-0.2-0.8-0.6c-0.1-0.5-0.1-0.9,0.4-1.2c0.7-0.5,1.6-0.7,2.5-0.8
			c0.4,0,0.7,0.3,0.7,0.7C32.4,26.2,32.4,26.4,32.4,26.6z"/>
	</g>
</g>
</svg>
