<?xml version="1.0" encoding="utf-8"?>
<!-- Generator: Adobe Illustrator 26.3.1, SVG Export Plug-In . SVG Version: 6.00 Build 0)  -->
<svg version="1.1" id="Layer_1" xmlns="http://www.w3.org/2000/svg" xmlns:xlink="http://www.w3.org/1999/xlink" x="0px" y="0px"
	 viewBox="0 0 800 211" style="enable-background:new 0 0 800 211;" xml:space="preserve">
<style type="text/css">
	.st0{display:none;}
	.st1{fill:#FFFFFF;}
</style>
<rect class="st0" width="800" height="211"/>
<g>
	<g>
		<g>
			<g>
				<path class="st1" d="M408.6,3.8c56.9,0.1,100.3,45.2,102.5,97.9c2.6,61.1-46.1,107.5-102,107.6c-56.8,0.2-102.5-45.6-103-101.8
					C305.5,50.2,351.8,3.8,408.6,3.8 M408.3,201.6c52.4-0.1,96-42.8,95.1-97.1c-0.8-51.2-42.5-94.3-96.7-93.6
					c-51.1,0.7-94.4,42.6-93.6,97C313.8,159.4,355.9,201.5,408.3,201.6"/>
			</g>
			<g>
				<path class="st1" d="M378.4,69.1c-0.9,1.9-1.7,3.8-2.6,5.7c-1.3,2.8-2.5,5.6-3.8,8.3c-1.9,4.1-3.7,8.3-5.7,12.4
					c-2.5,5.1-5,10.3-7.7,15.3c-3.1,5.8-6.5,11.5-9.8,17.2c-1.7,2.9-3.6,5.7-5.7,8.3c-2,2.5-3.9,5.1-6.6,6.9c-0.9,0.6-2,1.2-3,1.6
					c-1.9,0.7-4.1-0.3-5-2.1c-0.4-0.8-0.3-1.7,0.5-2.1c3-1.6,5.2-4.2,7.1-6.9c2.7-3.9,5.2-7.8,7.7-11.8c1.1-1.7,2.2-3.5,3.2-5.2
					c2.1-3.7,4.1-7.4,6.1-11.1c2.9-5.4,5.7-10.8,8.5-16.2c1.4-2.8,2.7-5.6,4.1-8.4c1.5-3,3.1-6,4.6-9c1-2.1,1.9-4.2,3-6.3
					c1.6-3.3,3.3-6.5,4.9-9.8c1.1-2.2,2.1-4.4,3.1-6.5c0.4-0.8,0.9-1.5,1.3-2.3c0.7-1.4,1.8-1.8,3.2-1.8c1.4,0.1,2.6,0.6,3.5,1.6
					c0.3,0.3,0.4,1.1,0.3,1.5c-2.7,7-4.2,14.3-5.7,21.6c-2,9.7-3.3,19.5-4.5,29.3c-0.8,6.8-1.3,13.6-2,20.5c0,0.1,0,0.3,0.1,0.5
					c0.1-0.3,0.2-0.6,0.3-0.8c1.4-4.6,2.7-9.2,4.3-13.7c1.4-4.2,3.1-8.3,4.7-12.4c1.7-4.1,3.4-8.3,5.2-12.4c0.7-1.7,1.6-3.4,2.4-5.1
					c1.7-3.5,3.4-7,5.3-10.4c3.1-5.8,6.4-11.4,10.4-16.6c2.1-2.8,4.3-5.6,6.6-8.4c2.5-2.9,5.1-5.6,8.2-7.9c0.8-0.6,1.7-1.3,2.6-1.9
					c1-0.6,2-0.7,3-0.2c1.2,0.6,2.2,1.5,2.6,2.9c0.2,0.7,0,1.1-0.6,1.5c-2.1,1.6-4.2,3.2-6.3,4.8c-2.9,2.2-5.2,4.9-7.4,7.8
					c-2.3,3-4.7,6.1-6.9,9.2c-1.5,2.1-2.7,4.4-4,6.7c-1.4,2.5-2.9,5-4.2,7.6c-1.5,3-3,6-4.3,9.1c-2.9,6.8-5.8,13.5-8.6,20.3
					c-1.1,2.8-2.2,5.6-3.1,8.5c-2.7,8.4-5.2,16.8-7.8,25.2c-0.6,1.9-1.6,2.9-3.6,3.1c-2.7,0.2-3,0.3-3.8-2.5
					c-1-3.8-1.1-7.8-1.1-11.7c-0.1-6.8,0.4-13.6,1.4-20.3c1.1-7.2,2.2-14.4,3.4-21.5c0.6-3.8,1.5-7.5,2.3-11.3
					c0-0.2,0.1-0.4,0.1-0.6C378.5,69.1,378.4,69.1,378.4,69.1"/>
			</g>
			<g>
				<path class="st1" d="M394.3,117.1c0-6.5,1.6-12.7,4.2-18.7c2.4-5.6,5.1-11.1,8.5-16.3c1.2-1.8,2.3-3.6,3.6-5.3
					c2.6-3.4,5.2-6.9,8-10.2c2.3-2.7,4.9-5.2,7.4-7.8c4-4,8.4-7.4,13.1-10.3c4.9-3,10-5.5,15.6-6.8c4.7-1.1,9.4-1.3,14.2-0.3
					c5.9,1.3,9.2,6.1,8.1,12c-1.3,6.8-4.4,12.8-9,18c-0.8,1-2.6,1.2-3.7,0.6c-1.1-0.6-1.3-1.7-0.6-2.7c2.6-3.6,4.4-7.6,5.5-11.9
					c0.4-1.7,0.7-3.5,0.7-5.2c0-3.8-2.5-6.2-6.3-6.5c-3.1-0.2-6,0.6-8.9,1.5c-3.9,1.3-7.6,3.1-11,5.3c-3.6,2.4-7.3,4.5-10.4,7.5
					c-1.8,1.7-3.8,3.1-5.6,4.8c-2.1,2-4,4.1-6,6.2c-3.6,3.9-6.9,8.2-9.7,12.7c-2.4,3.8-4.4,7.9-6.4,11.9c-2.9,5.9-4.7,12.2-5.7,18.7
					c-0.7,4.4,0.3,8.6,3,12.2c2.5,3.2,6,4.1,9.9,4.1c2.7,0,5.1-0.8,7.6-1.7c4.6-1.7,8.6-4.4,12.5-7.1c3-2.1,5.9-4.2,8.7-6.5
					c2.9-2.3,5.7-4.8,8.4-7.3c2.7-2.4,5.3-4.9,8-7.4c2.4-2.3,4.8-4.6,7.1-6.9c1.3-1.2,2.5-1.4,3.7-0.5c1.3,1,1.3,2.4,0.2,3.5
					c-1.2,1.1-2.2,2.4-3.3,3.6c-1.5,1.6-3.1,3-4.6,4.6c-1.8,1.8-3.6,3.6-5.4,5.3c-1.2,1.1-2.4,2.1-3.6,3.1c-2.5,2.1-4.8,4.4-7.4,6.4
					c-3.5,2.7-7,5.5-10.8,7.9c-4.7,2.9-9.6,5.8-15.1,7.2c-4.7,1.2-9.5,1.5-14.1,0c-5.2-1.7-8.6-5.3-9.7-10.8c-0.4-2.4-0.8-3-0.8-5.5
					C394.4,118.9,394.2,117.1,394.3,117.1"/>
			</g>
			<g>
				<path class="st1" d="M407.8,159.6c-1.8,1.4-3.7,2.9-4.7,5.1c-0.2,0.5-0.3,1.4-1.1,1.4c-0.9,0-1.1-0.8-1.3-1.5
					c-0.6-1.3,0.2-2.2,1-3.1c2.2-2.3,4.7-4.1,7.5-5.6c0.4-0.2,0.8-0.7,1-1.1c1.8-4.1,3.4-8.2,5.3-12.2c0.6-1.3,0.9-2.9,2.5-3.5
					c0.3-0.1,0.5-0.2,1.1-0.4c-1,4.9-2.5,9.6-2.3,14.4c0.7,0.1,1.9-0.2,1.9,0.9c0,0.9-0.6,1.3-1.7,1.4c0.4,1.9,0.9,3.7,1.3,5.5
					c0.3,1,0,1.4-1.1,1.3c-1.3-0.1-1.8-0.5-2.1-1.8c-0.2-1.4-0.5-2.9-0.7-4.3c-1.3,0-1.8,0.5-2.3,1.6c-1.2,3.3-2.4,6.7-3.7,10
					c-0.6,1.5-1.4,2.9-2.8,3.8c-1.6,1-3.8,0.5-4.7-1.2c-0.4-0.7-0.4-1.3,0.3-1.7c2.2-1.2,3.4-3.3,4.7-5.3c0.7-1.2,1.4-2.4,2.1-3.6
					C407.9,159.7,407.9,159.7,407.8,159.6 M414.5,153.4c0.2-1.2,0.2-2.4,0.4-3.5c-0.5,1.4-0.9,2.7-1.4,4.1"/>
			</g>
			<g>
				<path class="st1" d="M478,149.4c-0.3,0.1-0.6,0.3-0.9,0.4c-5.2,2.2-10.4,4.4-15.6,6.7c-3.6,1.6-7.2,3.3-10.9,4.7
					c-6.6,2.6-13,5.7-19.7,7.9c-7.9,2.6-15.7,5.4-23.6,8.1c-3,1-6,2-9,3c-0.2,0.1-0.4,0.1-0.7,0.2c0-0.1-0.1-0.1-0.1-0.2
					c0.6-0.3,1.2-0.6,1.8-0.9c6.7-2.9,13.5-5.8,20.2-8.7c2.1-0.9,4.3-1.7,6.5-2.6c3.8-1.6,7.5-3.3,11.3-5c1.5-0.6,3-1,4.5-1.5
					c3.4-1.2,6.8-2.3,10.2-3.5c4.4-1.5,8.8-3.1,13.2-4.6c3.9-1.4,7.9-2.7,11.8-4c0.3-0.1,0.6-0.2,0.9-0.2
					C477.9,149.2,478,149.3,478,149.4"/>
			</g>
			<g>
				<path class="st1" d="M428.7,145.7c-0.2,0.4-0.3,0.7-0.4,1c-1.1,2.6-2.1,5.1-3.1,7.7c-0.2,0.6-0.3,1.2-0.3,1.9c0,0.7,0.4,1,1,0.6
					c0.5-0.3,0.9-0.8,1.1-1.2c1.4-2.9,2.8-5.9,4.2-8.8c0.4-0.9,1-1.6,1.6-2.4c0.1-0.2,0.4-0.5,0.6-0.5c0.5-0.1,1.1-0.1,1.6-0.2
					c-0.1,0.5-0.1,1-0.3,1.4c-0.8,2.6-1.8,5.2-2.6,7.8c-0.1,0.5,0.1,1,0.2,1.5c0.5-0.2,1.1-0.3,1.5-0.6c1.5-1.3,2.4-3,3.5-4.7
					c0.2-0.4,0.8-1,1-0.9c0.7,0.2,0.4,0.9,0.2,1.4c-0.8,1.9-1.6,3.9-2.7,5.7c-0.8,1.3-1.8,2.6-2.8,3.7c-0.6,0.6-1.4,1-2.2,1.2
					c-1.3,0.4-2,0-2.6-1.3c-0.1-0.2-0.2-0.3-0.3-0.6c-0.3,0.5-0.6,1-0.8,1.4c-0.9,1.6-2.2,2.6-4,3c-1,0.2-2.2-0.7-2.4-1.9
					c-0.2-1.1-0.2-2.2,0-3.2c1-4.2,3-8,5.6-11.4C426.9,145.4,427.6,145.3,428.7,145.7"/>
			</g>
			<g>
				<path class="st1" d="M463.1,143.2c0.7-0.8,1.4-1.6,2.1-2.3c0.2-0.2,0.6-0.3,0.9-0.5c0,0.3,0.2,0.7,0,1c-0.9,2.1-2.3,3.8-4.7,4.3
					c-0.3,0.1-0.5,0.3-0.8,0.6c-2,2.2-4.3,3.8-7.4,4.1c-3.5,0.3-4.6-2.7-3.6-5.1c2-4.9,5.7-7.9,10.8-9c1.4-0.3,2.9,0.8,3,2.2
					c0.1,0.8,0,1.6-0.1,2.3c-0.1,0.8-0.4,1.5-0.6,2.2C463,143.1,463,143.2,463.1,143.2 M460.9,138.7c0-0.1-0.1-0.2-0.1-0.3
					c-0.4,0.1-0.8,0-1.1,0.2c-0.7,0.4-1.3,0.9-1.8,1.4c-1.5,1.4-2.7,2.9-3.3,4.9c-0.1,0.4-0.1,1,0.2,1.2c0.2,0.2,0.9,0.2,1.2,0
					c0.8-0.5,1.6-1.1,2.3-1.8c0.3-0.3,0.5-0.8,0.4-1.3c0-1.5,0.3-2.9,1.6-3.8C460.4,139.1,460.6,138.9,460.9,138.7"/>
			</g>
			<g>
				<path class="st1" d="M446.3,138.4c0.2,0.3,0.4,0.6,0.4,1c0,0.4-0.1,0.8-0.2,1.3c-0.1,0.6-0.4,1-1.1,1c-0.7,0-1.1,0.4-1.3,1
					c-0.6,2.1-1.3,4.2-1.9,6.3c-0.1,0.3-0.1,0.6-0.1,0.9c0.1,0.4,0.2,1,0.5,1.1c0.3,0.1,1-0.1,1.2-0.4c0.9-1.2,1.7-2.5,2.5-3.8
					c0.2-0.3,0.3-0.7,0.5-1.1c0.1-0.2,0.5-0.4,0.5-0.3c0.2,0.1,0.4,0.4,0.4,0.6c0,0.5-0.1,1-0.2,1.4c-0.9,2.7-1.9,5.2-3.9,7.3
					c-0.3,0.3-0.6,0.6-0.9,0.9c-1.5,1.2-3.4,0.6-3.6-1.3c-0.2-1.7,0-3.4,0.1-5.1c0.2-1.6,0.6-3.2,0.9-4.8c-0.1,0.1-0.4,0.1-0.6,0.2
					c-0.1-0.1-0.2-0.2-0.2-0.2c0.3-0.8,0.4-1.7,0.9-2.4c0.6-0.8,1.1-1.6,1.4-2.5c0.5-1.4,0.9-2.8,1.7-4c0.7-1,1.9-1.8,3-2.6
					c0.3-0.2,1,0,1.5,0c0,0.5,0.1,1-0.1,1.4c-0.6,1.4-1.3,2.7-1.9,4.1C446.1,138.5,446.2,138.5,446.3,138.4"/>
			</g>
			<g>
				<path class="st1" d="M382.4,189.3v1.8h4.4c0.1,0,0.2,0,0.2-0.1c0.1,0,0.1-0.1,0.1-0.2h0.2v1.7h-0.2c0-0.1-0.1-0.2-0.1-0.2
					c-0.1,0-0.1-0.1-0.2-0.1h-6.2V192c0.1,0,0.2-0.1,0.3-0.1c0-0.1,0.1-0.1,0.1-0.2V186c0-0.1,0-0.2-0.1-0.2c0-0.1-0.1-0.1-0.3-0.1
					v-0.2h6.1c0.1,0,0.2,0,0.2-0.1c0.1,0,0.1-0.1,0.1-0.2h0.2v1.7H387c0-0.1-0.1-0.2-0.1-0.2c-0.1,0-0.1-0.1-0.2-0.1h-4.3v1.6h2.8
					c0.1,0,0.2,0,0.2-0.1c0.1,0,0.1-0.1,0.1-0.2h0.2v1.7h-0.2c0-0.1-0.1-0.2-0.1-0.2c-0.1,0-0.1-0.1-0.2-0.1H382.4z"/>
			</g>
			<g>
				<path class="st1" d="M393.6,187.2l-0.7,1.3l-0.1-0.1c0-0.1,0-0.2-0.1-0.3c-0.2-0.2-0.5-0.3-0.8-0.4c-0.4-0.1-0.7-0.2-1.1-0.2
					c-0.3,0-0.6,0-0.9,0.1c-0.4,0.1-0.5,0.3-0.5,0.6c0,0.2,0.1,0.3,0.3,0.3s0.5,0.1,1,0.2l0.8,0.1c0.7,0.1,1.2,0.2,1.6,0.4
					c0.2,0.1,0.4,0.3,0.5,0.5c0.2,0.2,0.2,0.5,0.2,0.8c0,0.6-0.3,1-0.8,1.3c-0.5,0.3-1.2,0.5-2,0.5c-0.8,0-1.7-0.2-2.5-0.5
					c-0.1,0-0.1,0-0.1,0c-0.1,0-0.1,0-0.2,0.1l-0.1,0l0.6-1.3l0.1,0v0c0,0.1,0,0.2,0.1,0.2c0.2,0.1,0.5,0.3,0.9,0.4s0.8,0.2,1.2,0.2
					c0.4,0,0.7,0,1-0.1c0.3-0.1,0.5-0.3,0.5-0.5c0-0.2-0.1-0.3-0.4-0.4c-0.2-0.1-0.5-0.1-0.9-0.1l-0.8-0.1c-0.4,0-0.7-0.1-1-0.1
					c-0.2-0.1-0.4-0.1-0.6-0.2c-0.2-0.1-0.4-0.3-0.5-0.5c-0.1-0.2-0.2-0.5-0.2-0.7c0-0.6,0.3-1.1,0.8-1.4c0.5-0.3,1.1-0.4,1.8-0.4
					c0.4,0,0.7,0,1.1,0.1c0.3,0.1,0.7,0.2,1.2,0.4c0.1,0.1,0.2,0.1,0.3,0.1c0.1,0,0.1,0,0.2-0.1L393.6,187.2z"/>
			</g>
			<g>
				<path class="st1" d="M397.7,187.7v4c0,0.1,0,0.2,0.1,0.2c0,0.1,0.1,0.1,0.3,0.1v0.1h-2v-0.1c0.1,0,0.2-0.1,0.2-0.1
					c0-0.1,0.1-0.1,0.1-0.2v-4h-1.7c-0.1,0-0.2,0-0.2,0.1c-0.1,0-0.1,0.1-0.1,0.2h-0.1v-1.6h0.1c0,0.1,0.1,0.2,0.1,0.2
					s0.1,0.1,0.2,0.1h4.7c0.1,0,0.2,0,0.2-0.1c0.1,0,0.1-0.1,0.1-0.2h0.1v1.6h-0.1c0-0.1-0.1-0.2-0.1-0.2c-0.1,0-0.1-0.1-0.2-0.1
					H397.7z"/>
			</g>
			<g>
				<path class="st1" d="M401.6,190.7c0.2,0,0.4,0.1,0.6,0.2c0.2,0.2,0.2,0.3,0.2,0.6c0,0.2-0.1,0.4-0.2,0.6
					c-0.2,0.2-0.4,0.2-0.6,0.2c-0.2,0-0.4-0.1-0.6-0.2c-0.2-0.2-0.2-0.3-0.2-0.6c0-0.2,0.1-0.4,0.2-0.6
					C401.1,190.8,401.3,190.7,401.6,190.7"/>
			</g>
			<g>
				<path class="st1" d="M410.5,191h4.2c0.1,0,0.2,0,0.2-0.1c0.1,0,0.1-0.1,0.1-0.2h0.2v1.8h-0.2c0-0.1-0.1-0.2-0.1-0.2
					c-0.1,0-0.1-0.1-0.2-0.1h-5.3c-0.2,0-0.3,0-0.3,0.1c-0.1,0-0.1,0.1-0.1,0.3h-0.2c0-0.2,0-0.3,0-0.3c0-0.4,0-0.8,0.1-1
					c0.2-0.6,0.6-1,1.1-1.4c0.3-0.2,0.7-0.4,1.4-0.7l0.8-0.4c0.4-0.2,0.7-0.4,0.9-0.6c0.2-0.2,0.3-0.4,0.3-0.7
					c0-0.3-0.1-0.5-0.3-0.7c-0.2-0.2-0.5-0.2-0.9-0.2c-0.5,0-0.9,0.1-1.4,0.3c-0.4,0.2-0.6,0.5-0.6,0.7c0,0.1,0,0.2,0.1,0.3
					l-0.1,0.1l-1.3-1.4l0.1-0.1c0.1,0.1,0.2,0.1,0.3,0.1c0.1,0,0.1,0,0.1,0c0,0,0.1-0.1,0.2-0.2c0.7-0.6,1.6-0.9,2.7-0.9
					c0.8,0,1.4,0.2,1.9,0.6c0.5,0.4,0.7,0.9,0.7,1.5c0,0.6-0.2,1.1-0.7,1.5c-0.3,0.3-0.7,0.5-1.2,0.7l-0.8,0.3
					c-0.1,0-0.3,0.1-0.5,0.2c-0.3,0.1-0.6,0.2-0.7,0.3C410.7,190.7,410.6,190.8,410.5,191"/>
			</g>
			<g>
				<path class="st1" d="M419.3,185.4c0.9,0,1.6,0.3,2.2,0.9c0.7,0.6,1,1.5,1,2.7c0,0.4-0.1,0.7-0.2,1.1c-0.1,0.4-0.2,0.7-0.4,0.9
					c-0.3,0.5-0.7,0.8-1.2,1.1c-0.4,0.2-0.9,0.3-1.5,0.3c-0.9,0-1.6-0.3-2.2-0.9c-0.3-0.3-0.5-0.6-0.7-0.9c-0.2-0.5-0.3-1.1-0.3-1.7
					c0-0.8,0.2-1.5,0.6-2.1c0.3-0.5,0.7-0.8,1.2-1.1C418.2,185.5,418.7,185.4,419.3,185.4 M419.3,186.5c-0.5,0-1,0.2-1.3,0.7
					c-0.3,0.4-0.4,1-0.4,1.6s0.1,1.2,0.4,1.6c0.3,0.5,0.7,0.7,1.3,0.7c0.5,0,1-0.2,1.3-0.7c0.3-0.4,0.4-1,0.4-1.6
					c0-0.7-0.1-1.2-0.4-1.6C420.3,186.8,419.8,186.5,419.3,186.5"/>
			</g>
			<g>
				<path class="st1" d="M424.3,187.9v-1.8h0.2c0,0.1,0.1,0.2,0.1,0.2c0,0,0.1,0.1,0.2,0.1c0,0,0.1,0,0.1,0l0.4-0.1V186
					c0-0.1,0-0.2-0.1-0.2c0-0.1-0.1-0.1-0.3-0.1v-0.2h2.1v0.2c-0.1,0-0.2,0.1-0.3,0.1c0,0.1-0.1,0.1-0.1,0.2v5.7
					c0,0.1,0,0.2,0.1,0.2c0,0.1,0.1,0.1,0.3,0.1v0.2h-2.1V192c0.1,0,0.2-0.1,0.3-0.1c0-0.1,0.1-0.1,0.1-0.2v-4.2l-0.5,0.1
					c-0.1,0-0.2,0.1-0.2,0.1c0,0-0.1,0.1-0.1,0.3H424.3z"/>
			</g>
			<g>
				<path class="st1" d="M434,188.6c1,0.3,1.5,0.8,1.5,1.6c0,0.5-0.2,1-0.6,1.4c-0.5,0.5-1.4,0.7-2.6,0.7c-0.8,0-1.5-0.1-2.1-0.4
					c-0.3-0.2-0.6-0.4-0.9-0.7c-0.2-0.3-0.3-0.7-0.3-1.1c0-0.8,0.5-1.3,1.5-1.6c-0.8-0.3-1.2-0.8-1.2-1.4c0-0.5,0.2-0.8,0.6-1.2
					c0.5-0.4,1.3-0.6,2.4-0.6c0.8,0,1.4,0.1,1.9,0.3c0.3,0.1,0.6,0.3,0.8,0.6c0.2,0.3,0.3,0.5,0.3,0.9
					C435.2,187.8,434.8,188.3,434,188.6 M432.2,189.2c-0.6,0-1,0.1-1.4,0.3c-0.3,0.2-0.4,0.4-0.4,0.7c0,0.3,0.2,0.6,0.5,0.7
					c0.3,0.2,0.7,0.3,1.3,0.3c0.6,0,1.1-0.1,1.4-0.3c0.3-0.2,0.4-0.4,0.4-0.7c0-0.3-0.2-0.6-0.5-0.7
					C433.2,189.3,432.8,189.2,432.2,189.2 M432.2,186.4c-0.5,0-0.8,0.1-1.1,0.2c-0.3,0.1-0.4,0.3-0.4,0.6s0.1,0.4,0.4,0.6
					c0.3,0.1,0.7,0.2,1.1,0.2c0.5,0,0.8-0.1,1.1-0.2c0.3-0.1,0.4-0.3,0.4-0.6c0-0.3-0.1-0.5-0.4-0.6
					C433.1,186.5,432.7,186.4,432.2,186.4"/>
			</g>
		</g>
	</g>
</g>
</svg>
