<?xml version="1.0" encoding="utf-8"?>
<!-- Generator: Adobe Illustrator 26.3.1, SVG Export Plug-In . SVG Version: 6.00 Build 0)  -->
<svg version="1.1" id="a" xmlns="http://www.w3.org/2000/svg" xmlns:xlink="http://www.w3.org/1999/xlink" x="0px" y="0px"
	 viewBox="0 0 430.6 91.8" style="enable-background:new 0 0 430.6 91.8;" xml:space="preserve">
<style type="text/css">
	.st0{fill:#333333;}
</style>
<g>
	<path d="M334.5,59.3l0.9-3.5h-6.3h-9.6h-1.3h-4.1h-10.9h-3.7l-0.2,0.6c-3.1-0.7-6.2-1-9.2-1.2l9.5-13l0.4-0.6h7.2h3.7L312,38
		l2.9-11.2h2.5h3.7l1-3.5l2-7.4l1.6-6.1H321l0.9-3.5h-6.3h-18.5h-6.4h-9.6H280h-4.1H265h-3.1H257h-16.6h-2.7l-1.4,2.3L236,9.1h-0.6
		v1l-0.8,1.4c-0.4-0.3-0.8-0.5-1.3-0.7c-0.3-0.5-0.7-1-1.1-1.6c-2.6-2.9-6.5-2.9-7.7-2.9H206h-3.7l-0.2,0.5
		c-3.9-0.8-7.7-1.1-11.3-1.1c-2.7,0-5.9,0.2-9.3,1.2c-3.7,1.1-6.2,3.7-7.9,6.7l-3.6,2.3l-3-0.3l0.4-2.3l0.1-0.6l-0.1-0.6
		c-0.2-1.3-1.6-5.5-10.4-7.3L148.3,2l-2.2,13.9l-16.8-1.5l-2.2-2.7l-1.6-2.5c-1.4-1.6-3.9-3.5-9-4.5l-4.6-0.9l-0.1,0.5l-1.4-1.4
		l-3.2,6.8c-1.3-0.6-3-1.1-5-1.6l-3.7-0.8c-2.2-1.5-4.4-2.6-4.4-2.6l-2.4,11.1L85,67.3l3,0.3l-0.3,1.9l-0.1,0.2v0.2
		c-0.1,1.1,0.3,2.4,1.2,3.4c0,0,1.5,1,3.7,1.7h4.9L97,80.5l2.6,0.9l-0.1,0.8l-0.1,0.6l0.1,0.6c0.2,1.3,1.6,5.5,10.4,7.3l4.6,0.9
		l0.8-4.9l0.7-4.6l1.1-7.1h19.5l1,5.5l2.4,1.9l-0.1,0.4l0.1,0.6c0.2,1.3,1.6,5.5,10.4,7.3l4.6,0.9l0.8-4.9l0.2-1
		c1.5,1.3,4,2.6,8,3.4l4.6,0.9l0.4-2.4h3.3l-1,3.5h6.3h18.3c1.5,0,3.2-0.3,4.8-0.8l-0.2,0.8h6.2h22.9h3.8l0.1-0.2
		c3.8,0.6,7.7,0.8,12.6,0.8c2.8,0,5.5-0.1,8-0.7v0.1h6.3h9.4h3.7l0.7-2.5c0.9,0.8,1.9,1.4,3.1,1.9c3.1,1.3,6.7,1.3,9.6,1.3
		c1.9,0,5.2-0.2,8.4-0.7h6h9.6h3.7h2.1H327h3.7l1-3.5l6-22.2l1.6-6.1L334.5,59.3L334.5,59.3z M327.4,64.1h0.8l-0.8,3.1V64.1z"/>
	<path class="st0" d="M282.8,85.9c-4.7,0-12.2,0-13.5-7l-1.7,6.4h-14.3l0.6-2.3c-2.8,2.7-6.9,2.9-11.7,2.9c-5.5,0-9.7-0.3-13.8-1.1
		l-0.7-0.1l-0.1,0.5h-27.9l0.9-3.7c-2.5,2.7-5.8,3.7-8.7,3.7h-21.4l6.8-24.8h-7l6.8-25.3c-2.7-1.2-4.7-3.5-4.7-8.1
		c0-3.9,1.8-15.5,9.9-17.9c3.1-1,6.1-1.1,8.6-1.1c4,0,8.1,0.5,12.3,1.4l0.8,0.2l0.3-0.9h20.2c5.1,0,7.5,2.4,7.5,7.4
		c0,5.3-2.6,9.1-6.8,10.2l1.7,2.5l12-20.1h20.4v13.7L263,8.7h14.8l0.5,3.5l0.9-3.5h39.4l-3.3,12.2h-6.2l-3.9,14.9h-10.3L278,59
		c0.3-0.1,0.5-0.2,0.9-0.3c3.1-1,6.1-1.1,8.6-1.1c4,0,8.1,0.5,12.3,1.4l1.2,0.3l0.3-1h14.8l0.5,3.5l0.9-3.5h14.6l-7.3,27h-14.3
		l-0.9-4l-1.1,4H294l0.2-0.6C290.7,85.5,285.5,85.9,282.8,85.9 M230.9,74.5c-0.2-0.2-0.3-0.3-0.4-0.5l-0.1,0.5
		C230.5,74.5,230.8,74.5,230.9,74.5 M188.5,74.5c1,0,1.5-1.1,1.6-1.7c0.3-1.1,0.4-1.9,0.5-2.3h-1.4l-1.1,4.1L188.5,74.5 M284.8,71.4
		c-0.5,0.8-0.8,2-0.8,3L284.8,71.4 M256.1,70.1c0.3,0.5,0.6,1,0.8,1.7l0.4-1.5L256.1,70.1 M203.3,60.5c0.9,0.9,1.6,2,2,3.4l0.9-3.4
		H203.3 M273.9,62.2c0.5-0.6,1.1-1.2,1.7-1.7h-1.3L273.9,62.2 M234.7,58.2l-0.5,1.8c0.5-0.4,1-0.7,1.6-1c-0.6-0.4-1.2-1-1.6-1.6v0.9
		L234.7,58.2 M260.3,58.7l0.1-0.5h0.9l4.3-5.7l-2.3-8.6l-0.3,1h0.1l-3.8,13.6L260.3,58.7 M219.7,58.2v-1h-4l-0.6,1H219.7
		 M186.4,58.2l-0.4-1.7l-0.5,1.7H186.4 M248.2,46.7c-0.5,0.8-0.8,2-0.8,3L248.2,46.7 M204.4,48.9l9.1-15.2l-1.2-2l-1,3.9H208
		L204.4,48.9 M234.1,43.4c1.4-4.1,3.9-8.2,8.3-9.5c0.9-0.3,1.7-0.5,2.5-0.6v-0.8h-4l-1.9,3.2h-4.9L234.1,43.4 M276.7,38.4l1.6-2.7
		h-1.9L276.7,38.4 M193.1,37l0.3-1.1c-0.2,0-0.3,0.1-0.5,0.1L193.1,37 M291.3,33.4l3.3-12.6h-3.9l-3.4,12.6H291.3 M271.8,33.4
		l-0.4-1.7l-0.5,1.7H271.8 M188,21.9c-0.5,0.8-0.8,2-0.8,3L188,21.9"/>
	<path d="M190.9,10.4c4,0,7.9,0.5,11.8,1.4l-1.8,6.5c-2.1-0.3-4.4-0.5-6.6-0.5c-1.7,0-3.7,0-5.3,0.4c-2.8,0.8-4.1,4.5-4.1,7.3
		c0,2.6,1.5,2.8,3.5,2.8c0.2,0,0.3,0,0.5,0l1.6-5.8h9.4L197,32.8c-3.2,0.8-8.2,1.2-10.8,1.2c-5.7,0-11.3-0.1-11.3-6.9
		c0-2.5,1.2-13.5,8.1-15.6C185.8,10.5,188.5,10.4,190.9,10.4 M315.6,11.1l-2,7.4h-6.3l-3.9,14.9h-9.6l3.9-14.9h-6.3l2-7.4
		L315.6,11.1 M290.8,11.1l-6,22.2h-10.6l-2.6-11.6h-0.1l-3.1,11.6h-9.6l6-22.2h10.9l2,12.9h0.1l3.4-12.9L290.8,11.1 M256.9,11.1
		v22.2h-9.6V30h-7.8l-1.9,3.2H227h0.2l-0.1-0.2l13.2-22L256.9,11.1 M242.4,24.7h5v-8h-0.1L242.4,24.7 M224.4,11.1
		c4.3,0,5.1,1.8,5.1,5c0,5.6-3.1,8.1-7.1,8.1h-1.7l6.3,9l-0.1,0.2H216l-4.6-7.7l-2,7.7h-9.5l6.1-22.2L224.4,11.1 M212.6,21.9h4.3
		c2.2,0,3.1-1.6,3.1-3.1c0-1-0.8-1.6-2.1-1.6h-4.1L212.6,21.9 M251,35.2c4,0,7.9,0.5,11.8,1.4l-1.8,6.5c-2.1-0.3-4.4-0.5-6.6-0.5
		c-1.7,0-3.7,0-5.3,0.4c-2.8,0.8-4.1,4.5-4.1,7.3c0,2.6,1.5,2.8,3.5,2.8c0.2,0,0.3,0,0.5,0l1.6-5.8h9.4l-2.8,10.2
		c-3.2,0.8-8.2,1.2-10.8,1.2c-5.7,0-11.3-0.1-11.3-6.9c0-2.5,1.2-13.5,8.1-15.6C245.9,35.3,248.6,35.2,251,35.2 M292,35.9
		l-16.1,22.2h-11.4l3.8-5.1l-4.6-17.1H274l1.2,9.8h0.1l5.7-9.8H292 M231.7,35.9v22.2h-9.6v-3.2h-7.9l-1.9,3.2h-10.6l13.4-22.2H231.7
		 M217.2,49.5h5v-8h-0.1L217.2,49.5 M205.4,35.9l-6,22.2h-10.6l-2.6-11.6h-0.1L183,58.1h-9.6l6-22.2h10.9l2,12.9h0.1l3.4-12.9
		L205.4,35.9 M287.6,60c4,0,7.9,0.5,11.8,1.4l-1.8,6.5c-2.1-0.3-4.4-0.5-6.6-0.5c-1.7,0-3.7,0-5.3,0.4c-2.8,0.8-4.1,4.5-4.1,7.3
		c0,2.6,1.5,2.8,3.5,2.8c0.2,0,0.3,0,0.5,0l1.6-5.8h9.4l-2.8,10.2c-3.2,0.8-8.2,1.2-10.8,1.2c-5.7,0-11.3-0.1-11.3-6.9
		c0-2.5,1.2-13.5,8.1-15.6C282.5,60.1,285.2,60,287.6,60 M245.6,60c3.1,0,8.1,0.2,12.6,0.8l-2,6.9c-3-0.4-6-0.7-9-0.7
		c-3.7,0-4.6,0.5-4.6,1.6c0,0.9,0.6,1.1,5.5,1.1c3.5,0,6.7,0.2,6.7,4.8c0,1.7-0.8,4.1-1.5,5.2c-1.9,3.1-5,3.7-11.2,3.7
		c-5,0-9.2-0.3-13.4-1l1.4-5.6c3.5,0.4,7.1,0.7,10.6,0.7c1,0,3.2,0,3.2-1.5c0-1.1-0.5-1.3-6.1-1.3c-2.8,0-6-1-6-4.5
		c0-4.8,2.5-8.7,6.2-9.8C240.3,60,243.3,60,245.6,60 M329.1,60.6l-6,22.2h-10.6l-2.6-11.6h-0.1l-3.1,11.6h-9.6l6-22.2H314l2,12.9
		h0.1l3.4-12.9H329.1 M271.8,60.6l-6.1,22.2h-9.4l5.9-22.2L271.8,60.6 M231.5,60.6l-1.9,7h-13.2l-0.6,2.5H229l-1.3,4.8h-13.2l-0.5,2
		h13.2l-1.5,5.9h-22.9l5.7-22.2L231.5,60.6 M196.7,60.6c3.4,0,6.6,1.2,6.6,6.3c0,2.8-0.8,5.6-2.3,9.8c-1.7,4.6-5.7,6.2-8.8,6.2
		h-18.3l6.1-22.2L196.7,60.6 M185,76.9h3.5c2.2,0,3.5-1.7,3.9-3.6c0.5-1.9,0.6-2.7,0.6-3.2c0-1.5-0.7-2.1-2.6-2.1h-3.1L185,76.9
		 M190.9,5.6c-2.7,0-5.9,0.2-9.3,1.2C172.1,9.7,170,22.4,170,27.1c0,4,1.5,7.3,4.4,9.3l-5.5,20.5l-1.6,6.1h6.3h0.7l-5.1,18.7
		l-1.7,6.1h6.3H192c1.5,0,3.2-0.3,4.8-0.8l-0.2,0.8h6.2h22.9h3.8l0.1-0.2c3.8,0.6,7.7,0.8,12.6,0.8c2.8,0,5.5-0.1,8-0.7v0.1h6.3h9.4
		h3.7l0.7-2.5c0.9,0.8,1.9,1.4,3.1,1.9c3.1,1.3,6.7,1.3,9.6,1.3c1.9,0,5.2-0.2,8.4-0.7h6h9.6h3.7h2.1h10.6h3.7l1-3.5l6-22.2l1.6-6.1
		h-6.3h-9.6h-1.3h-4.1h-10.9h-3.7l-0.2,0.6c-4-0.8-8-1.3-11.8-1.3c-1.1,0-2.4,0.1-3.8,0.2l12-16.6l0.4-0.6h7.2h3.7l0.9-3.6l2.9-11.2
		h2.5h3.7l1-3.5l2-7.4l1.6-6.1h-6.3h-18.5h-6.5H281h-1h-4.1H265h-3.1H257h-16.6h-2.7l-1.4,2.3l-2.3,3.8c-0.3-1.1-0.9-2.2-1.7-3.2
		c-2.6-2.9-6.5-2.9-7.7-2.9h-18.4h-3.7L202.3,7C198.3,6,194.5,5.6,190.9,5.6"/>
	<path class="st0" d="M155.7,63.6H151l3.1-19.3h4.7L155.7,63.6 M146.1,40.6h-1.9l-15.3-18.9H149L146.1,40.6 M142.4,63.6h-32
		l3.1-19.3H135l8.7,10.7L142.4,63.6 M117,22l15.1,18.6h-18L117,22 M101.9,63.6h-5.2l6.6-41.8h5.2L101.9,63.6 M166.8,40.6h-12.3
		l3-18.9H168c0,0,1.4-0.8,3.4-3.7h-2.9h-2.6h-7.8l1.4-8.6c0,0-0.5-3.2-7.8-4.6L151,9.5l-1.4,8.6h-23.7l-7-8.6V9.4l0,0
		c-0.1-0.4-1-3.2-7.8-4.6l-0.7,4.6v0.1l-1.4,8.6h-5.2l0.8-5.2l0,0l0,0c0,0-0.5-3.2-7.8-4.6L96.1,13l0,0l0,0l-8.4,52.9
		c0,0-0.1,1.2,1.5,1.4v0.1h12l-1.7,11.1l0,0l0,0c0,0,0.5,3.2,7.8,4.6l0.7-4.6l1.7-11.1h32L140,78.5c0,0,0.5,3.2,7.8,4.6l0.7-4.6
		l1.7-11.1h4.7l-1.5,9.6l0,0c0,0.1,0.7,3.2,7.8,4.6l0.7-4.6l0,0l5.7-36.3L166.8,40.6"/>
	<path d="M111.2,4.9c6.8,1.4,7.7,4.1,7.8,4.6l0,0v0.1l7,8.6h23.7l1.4-8.6l0.7-4.6c7.3,1.5,7.8,4.6,7.8,4.6l-1.4,8.6h7.8h2.6h2.9
		c-2.1,2.9-3.4,3.7-3.4,3.7h-10.4l-3,18.9H167h1L162.1,77l0,0l-0.7,4.6c-7.1-1.4-7.8-4.5-7.8-4.6l0,0l1.5-9.6h-4.7l-1.7,11.1
		l-0.7,4.6c-7.3-1.5-7.8-4.6-7.8-4.6l1.7-11.1h-32l-1.7,11.1l0,0l0,0l-0.7,4.6c-7.3-1.5-7.8-4.6-7.8-4.6l0,0l0,0l1.7-11.1h-12v-0.1
		c-1.6-0.3-1.5-1.4-1.5-1.4L96.3,13l0,0l0,0L97,8.3c7.3,1.5,7.8,4.6,7.8,4.6l0,0l0,0l-0.8,5.2h5.2l1.4-8.6v0L111.2,4.9 M144.2,40.6
		h1.9l3-18.9H129L144.2,40.6 M96.7,63.6h5.2l6.6-41.8h-5.2L96.7,63.6 M114.1,40.6h18L117,22L114.1,40.6 M151,63.6h4.7l3.1-19.3H154
		L151,63.6 M110.4,63.6h32l1.4-8.6l-8.7-10.7h-21.6L110.4,63.6 M88.7,71.3h8l-1.1,7.1L95.5,79l0.1,0.6c0.2,1.3,1.6,5.5,10.4,7.3
		l4.6,0.9l0.8-4.9l0.7-4.6l1.1-7.1h24l-1.1,7.1l-0.1,0.6l0.1,0.6c0.2,1.3,1.6,5.5,10.4,7.3l4.6,0.9l0.8-4.9l0.2-1
		c1.5,1.3,4,2.6,8,3.4l4.6,0.9l0.8-4.9l0.7-4.6l5.7-36.3l0.7-4h-4h-1h-8.3l1.7-10.9h6.4h1.1l1.1-0.6c0.7-0.4,2.6-1.7,5-5.1l4.2-5.9
		H172h-2.9h-2.6h-3.8l0.7-4.6l0.1-0.6L163.4,8c-0.2-1.3-1.6-5.5-10.4-7.3L148.4,0l-0.8,4.9l-0.7,4.6l-0.7,4.6h-18l-5.1-6.2l-1.6-2.5
		c-1.4-1.6-3.9-3.5-9-4.5L107.9,0l-0.8,4.9l-0.5,3.3c-1.5-1.4-4-2.9-8.4-3.8l-4.6-0.9l-0.8,4.9L92.1,13l-0.3,1.7l-8.1,51.2l-0.1,0.2
		v0.2c-0.1,1.1,0.3,2.4,1.2,3.4C84.9,69.6,86.4,70.6,88.7,71.3z M137.7,25.8h6.8l-1.1,7L137.7,25.8z M118.7,36.6l0.8-4.9l3.9,4.9
		H118.7z M116.8,48.3h16l6.8,8.3l-0.5,3h-24L116.8,48.3z"/>
</g>
</svg>
