<?xml version="1.0" encoding="utf-8"?>
<!-- Generator: Adobe Illustrator 26.3.1, SVG Export Plug-In . SVG Version: 6.00 Build 0)  -->
<svg version="1.1" id="Layer_1" xmlns="http://www.w3.org/2000/svg" xmlns:xlink="http://www.w3.org/1999/xlink" x="0px" y="0px"
	 viewBox="0 0 800 211" style="enable-background:new 0 0 800 211;" xml:space="preserve">
<style type="text/css">
	.st0{display:none;}
</style>
<g>
	<polyline class="st0" points="438.4,129.8 635.1,129.8 663.4,118 635.1,118 429.8,118 429.8,118.2 429.5,118.1 420.2,151.6 
		132.3,151.6 131.4,151.8 94.9,163.6 131.4,163.6 131.4,163.6 429.7,163.6 	"/>
	<g>
		<path d="M303.9,26.9h128.2l-7.8,25.6h-82.8l-14.4,47.8c-0.2,0.8,0,1.7,0.5,2.9c0.5,1.1,1.2,1.7,2,1.7c0.5,0,2.1,0,4.7,0
			s5.9,0,9.9-0.1c4,0,8.4-0.1,13.3-0.1s9.8-0.1,14.8-0.1s9.8,0,14.5-0.1c4.7,0,8.8-0.1,12.4-0.1s6.4,0,8.4,0.1
			c2.1,0.1,2.9,0.1,2.6,0.2l-7.3,24.8H294.7c-1.2,0-2.4-0.2-3.8-0.6s-2.7-0.9-4-1.6s-2.5-1.5-3.6-2.3c-1.1-0.9-2-1.8-2.6-2.8
			c-1.4-2.1-2.6-4.5-3.7-7.2c-1.1-2.6-1.7-7.8-0.9-10.2L303.9,26.9z"/>
	</g>
	<path d="M411.6,141.1h-117c-2.3,0-4.6-0.3-7-1c-2.1-0.6-4.2-1.4-6.2-2.5c-2-1-3.9-2.3-5.6-3.7c-0.5-0.4-0.9-0.8-1.4-1.2l-3,8.2
		h-64.5l-4.7-25.1l-9.1,25.1h-61.8L177,15.4h64.5l4.9,25.6l9.4-25.6h38.7l0.1-0.2h153.2l-14,46.3l14.9-16.9h21c3,0,5.9,0.9,8.5,2.5
		c1.9,1.2,3.4,2.6,4.7,4.2l0.1,0.1c0.3,0.4,0.5,0.7,0.8,1.1c0.1-0.3,0.2-0.6,0.3-0.9l3-7.1h54.4l0,0h8.5h104c3.1,0,6,0.9,8.5,2.5
		c2.3,1.5,4.2,3.7,5.4,6.3c1.1,2.4,1.6,5,1.5,7.7c-0.1,2.1-0.6,4.1-1.4,6.1l-14.1,44.5h-53c-0.2,0-0.4,0-0.6,0
		c-2.3,0-4.5-0.4-6.5-1.1c-2.6-1-4.9-2.5-6.6-4.6c-1.1-1.3-2-2.8-2.6-4.4c-0.2,0.6-0.4,1.2-0.6,1.9l-2.5,8.2h-91c-0.3,0-0.6,0-0.8,0
		h-35.3l-2.2-8l-8.5,0.1l-7,7.9h-16.3l-0.2,0.7L411.6,141.1z M272.6,120.7l3.3,4.7c1,1.4,2.2,2.7,3.7,3.9c1.4,1.1,2.9,2.1,4.6,3
		s3.4,1.5,5.1,2c1.9,0.5,3.7,0.8,5.4,0.8h112.6l7.2-24.4l1.2-5H434l7-7.9l15.6-0.1l2.2,8h30.9c0.1,0,0.1,0,0.2,0s0.3,0,0.4,0h0.1
		H539l9.9-31.3h7.2l-9.3,31.3H577l1.2-4.1c1.8-5.8,3.4-11.1,4.8-15.7c0.6-1.9,1.1-3.8,1.7-5.7c0.4-1.3,0.8-2.5,1.1-3.7l0.6-2.1h7.9
		l-1,3.7c-1.2,4.4-2.4,9.3-3.8,14.6v0.2v0.2c-0.3,1.5-0.3,3-0.1,4.4c0.3,1.7,1,3.3,2.1,4.6c1.1,1.3,2.5,2.3,4.2,2.9
		c1.3,0.5,2.8,0.8,4.4,0.8c0.1,0,0.3,0,0.4,0h0.1h48.8l12.9-40.7l0.1-0.1c0.6-1.4,0.9-2.8,1-4.2c0.1-1.7-0.2-3.4-0.9-4.9
		c-0.7-1.6-1.9-2.9-3.3-3.8c-1.5-1-3.3-1.5-5.2-1.5H550h-4.2l0,0H491l-1.5,3.5c-0.2,0.5-0.5,1.2-1,3.1c-0.4,1.3-0.8,2.9-1.2,4.6l0,0
		l-3,10.8l-3.1-12.3l-0.2-0.4c-0.4-0.8-0.8-1.7-1.3-2.5s-1-1.5-1.5-2.2v-0.1c-0.9-1.1-1.9-2.1-3.2-2.9c-1.7-1.1-3.5-1.6-5.3-1.6
		h-18.3l-42.5,48.2h-1.4c-2.1,0-4.9-0.1-8.3-0.1c-3.5,0-7.6,0-12.4,0.1c-4.6,0-9.4,0.1-14.4,0.1c-4.9,0-9.9,0-14.9,0.1
		c-5.1,0.1-9.4,0.1-13.3,0.1c-2.4,0-4.6,0.1-6.7,0.1h-4l12.3-40.8h82.8l11.2-37.1h-141l-0.1,0.2H260l-15.3,41.8l-8-41.8h-55.5
		L139.8,135h49.3l15-41.5l7.8,41.5h55.5L272.6,120.7z M350.2,64.2l-8.7,29c0.9,0,1.7,0,2.6,0c3.9,0,8.2-0.1,13.3-0.1
		c5,0,10-0.1,14.9-0.1c5,0,9.8,0,14.4-0.1c4.8,0,8.9-0.1,12.5-0.1c2.7,0,5.1,0,7,0l25.2-28.6L350.2,64.2L350.2,64.2z"/>
	<g>
		<g>
			<g>
				<path d="M602.3,62.5c0.3-0.8,0.5-1.6,0.8-2.3c0.2-0.8,0.5-1.4,0.7-2s0.4-1.2,0.7-1.9c0,0-0.8,0.1-2.3,0.1c-1.6,0-3.6,0-6.2,0
					c-2.5,0-5.4,0-8.7,0s-6.6,0-10,0c-8,0-17.1,0-27.2-0.1L546,68.8h18.1l-9.3,31.3h18.1c1.8-5.9,3.4-11.1,4.8-15.7
					c0.6-2,1.2-3.9,1.7-5.8c0.6-1.9,1.1-3.5,1.5-5s0.9-3.1,1.5-4.8h18.1C601,66.4,601.7,64.3,602.3,62.5z"/>
			</g>
			<g>
				<path d="M478.8,74.6c-0.5-2.3-1-4.3-1.4-6.1s-0.8-3.3-1.1-4.4c-0.3-1.2-0.5-1.8-0.5-2c-0.2-0.6-0.6-1.2-0.9-1.8
					c-0.4-0.6-0.7-1.1-1.2-1.7c-0.5-0.6-1.1-1.1-1.8-1.6c-0.7-0.5-1.5-0.7-2.2-0.7h-15.8l-38.6,43.8h15.9l6.9-7.9l22.6-0.2l2.3,8.1
					h21.4c-1.5-6.9-2.9-13.1-4.2-18.6C479.8,79.2,479.3,76.9,478.8,74.6z M448,81.1l8.1-9.1l2.3,9.1H448z"/>
			</g>
			<g>
				<path d="M547.3,60.5c0.1-0.8,0-1.5-0.3-2.2c-0.3-0.6-0.7-1.1-1.3-1.5s-1.3-0.6-2.2-0.6H531l-10.6,33.3h-14.1
					c-0.6,0-1.1-0.2-1.6-0.7s-0.6-1.2-0.3-2.1c0-0.2,0.2-0.7,0.5-1.7s0.6-2.2,1-3.7s0.8-3.1,1.3-4.9c0.5-1.8,1-3.6,1.5-5.5
					c1.2-4.4,2.5-9.3,3.9-14.7h-17.9c-0.1,0.3-0.4,1.1-0.7,2.3c-0.3,1.3-0.7,2.8-1.3,4.6c-0.5,1.8-1,3.8-1.6,6.1s-1.2,4.5-1.8,6.8
					c-1.4,5.4-3,11.4-4.8,18.1c-0.2,0.8-0.2,1.6-0.1,2.3c0.1,0.7,0.4,1.3,0.9,1.9c0.5,0.5,1.1,1,1.8,1.3c0.8,0.3,1.7,0.4,2.8,0.4
					h44.7l11.8-37C547,62.2,547.2,61.3,547.3,60.5z"/>
			</g>
			<g>
				<path d="M657.3,58.4c-0.3-0.6-0.7-1.1-1.3-1.5s-1.2-0.6-2-0.6h-44.3c-1.1,0-2.1,0.4-3.2,1.1c-1,0.8-1.9,2-2.5,3.8
					c-0.1,0.3-0.3,1-0.6,2.1s-0.7,2.4-1.1,4c-0.4,1.6-0.9,3.4-1.4,5.3c-0.5,2-1.1,3.9-1.6,5.9c-1.3,4.7-2.6,9.9-4.1,15.7
					c-0.2,0.8-0.2,1.6-0.1,2.3c0.1,0.7,0.4,1.3,0.9,1.9c0.5,0.5,1.1,1,1.8,1.3c0.8,0.3,1.7,0.4,2.8,0.4h44.7l11.8-37
					c0.4-0.9,0.6-1.7,0.7-2.5C657.7,59.7,657.6,59,657.3,58.4z M630.9,89.6h-14.1c-0.6,0-1.1-0.2-1.6-0.7s-0.6-1.2-0.3-2.1
					c0-0.2,0.2-0.6,0.3-1.3c0.2-0.7,0.4-1.5,0.7-2.5s0.6-2.1,0.9-3.2c0.3-1.2,0.7-2.4,1-3.6c0.8-2.8,1.6-6,2.6-9.4H638L630.9,89.6z"
					/>
			</g>
		</g>
		<g>
			<path d="M185.3,27.1H232l11,57.5l21-57.5h36.7l-37.2,102.3h-46.7L206,71.9l-20.8,57.5h-37L185.3,27.1z"/>
		</g>
	</g>
</g>
</svg>
