<?xml version="1.0" encoding="utf-8"?>
<!-- Generator: Adobe Illustrator 26.3.1, SVG Export Plug-In . SVG Version: 6.00 Build 0)  -->
<svg version="1.1" id="Layer_1" xmlns="http://www.w3.org/2000/svg" xmlns:xlink="http://www.w3.org/1999/xlink" x="0px" y="0px"
	 viewBox="0 0 800 600" style="enable-background:new 0 0 800 600;" xml:space="preserve">
<g>
	<g>
		<path d="M8.7,362.1h5.5l-0.5,9.1h0l4-9.1h6l-6.8,12.7H8.7V362.1z"/>
		<path d="M26.4,362.1h13.1l-1,4h-7.6l-0.4,1.4h7.6l-0.7,2.7h-7.6l-0.3,1.1h7.6l-0.9,3.4H23.2L26.4,362.1z"/>
		<path d="M43.6,362.1H49l-1.2,4.6h3.3l1.2-4.6h5.4l-3.4,12.7h-5.4l1.2-4.5h-3.3l-1.2,4.5h-5.4L43.6,362.1z"/>
		<path d="M62.1,362.1h5.4l-3.4,12.7h-5.3L62.1,362.1z"/>
		<path d="M80.6,374.5c-2.4,0.5-4.9,0.6-6.1,0.6c-3.8,0-5.6-0.7-5.6-3.7c0-1.8,1-6.2,2.6-7.9c1.5-1.5,3.7-1.8,5.7-1.8
			c2.2,0,4.3,0.3,6.5,0.7l-1.1,4.2c-1.1-0.2-2-0.2-3.1-0.2c-1.6,0-3,0.1-4,1c-0.5,0.4-0.9,1.3-0.9,2.4c0,1.3,0.9,1.6,2.8,1.6
			c1.4,0,2.7-0.3,4-0.5L80.6,374.5z"/>
		<path d="M87.2,362.1h5.5l-2.1,8.3H96l-1.1,4.3h-11L87.2,362.1z"/>
		<path d="M101.4,362.1h13.1l-1,4h-7.6l-0.4,1.4h7.6l-0.7,2.7h-7.6l-0.3,1.1h7.6l-0.9,3.4H98.1L101.4,362.1z"/>
		<path d="M127.9,362.1h10.5c2.4,0,2.9,1,2.9,2.8c0,3.2-1.8,4.6-4.1,4.6h-1l3.7,5.2h-6.3l-2.6-4.4l-1.1,4.4h-5.4L127.9,362.1z
			 M131.6,368.3h2.4c1.2,0,1.8-0.9,1.8-1.7c0-0.6-0.4-0.9-1.2-0.9h-2.4L131.6,368.3z"/>
		<path d="M146,362.1h13.1l-1,4h-7.6l-0.4,1.4h7.6l-0.7,2.7h-7.6l-0.3,1.1h7.6l-0.9,3.4h-13.1L146,362.1z"/>
		<path d="M160.1,371.4c2,0.2,4,0.4,6.1,0.4c0.6,0,1.8,0,1.8-0.8c0-0.6-0.3-0.7-3.5-0.7c-1.6,0-3.4-0.5-3.4-2.5
			c0-2.7,1.4-4.9,3.5-5.6c1.2-0.3,2.9-0.4,4.2-0.4c1.8,0,4.6,0.1,7.2,0.5l-1.1,3.9c-1.7-0.2-3.4-0.4-5.2-0.4c-2.1,0-2.6,0.3-2.6,0.9
			c0,0.5,0.4,0.7,3.1,0.7c2,0,3.8,0.1,3.8,2.7c0,1-0.5,2.4-0.8,3c-1.1,1.8-2.9,2.1-6.4,2.1c-2.8,0-5.3-0.2-7.6-0.6L160.1,371.4z"/>
		<path d="M181.5,366.3h-3.6l1.1-4.2h12.7l-1.1,4.2H187l-2.2,8.5h-5.5L181.5,366.3z"/>
		<path d="M195.7,371.9l-2.6-9.8h5.9l0.7,5.6h0.1l3.2-5.6h6.3l-9.2,12.7h-6.5L195.7,371.9z"/>
		<path d="M211.7,362.1h5.5l-2.1,8.3h5.5l-1.1,4.3h-11L211.7,362.1z"/>
		<path d="M226.2,362.1h5.4l-3.4,12.7h-5.3L226.2,362.1z"/>
		<path d="M235.9,362.1h6.2l1.1,7.3h0l1.9-7.3h5.5l-3.4,12.7h-6l-1.5-6.6h0l-1.8,6.6h-5.5L235.9,362.1z"/>
		<path d="M265,374.5c-1.8,0.4-4.7,0.7-6.2,0.7c-3.2,0-6.4-0.1-6.4-3.9c0-1.4,0.7-7.7,4.6-8.9c1.6-0.5,3.1-0.6,4.5-0.6
			c2.3,0,4.5,0.3,6.7,0.8l-1,3.7c-1.2-0.1-2.5-0.3-3.8-0.3c-1,0-2.1,0-3.1,0.2c-1.6,0.4-2.4,2.5-2.4,4.2c0,1.6,1,1.6,2.3,1.6
			l0.9-3.3h5.4L265,374.5z"/>
		<path d="M293.1,361.5v17.7h-2.7v-17.7H293.1z"/>
		<path d="M318.6,362.1h10c2.8,0,3.5,1,3.5,3.1c0,1.4-0.6,6.7-4.9,6.7h-5.8l-0.8,2.9h-5.4L318.6,362.1z M322.1,368.8h2.7
			c0.6,0,1.7-0.4,1.7-2c0-0.7-0.4-1-1.1-1h-2.5L322.1,368.8z"/>
		<path d="M336.8,362.1h10.5c2.4,0,2.9,1,2.9,2.8c0,3.2-1.8,4.6-4.1,4.6h-1l3.7,5.2h-6.3l-2.6-4.4l-1.1,4.4h-5.4L336.8,362.1z
			 M340.5,368.3h2.4c1.2,0,1.8-0.9,1.8-1.7c0-0.6-0.4-0.9-1.2-0.9h-2.4L340.5,368.3z"/>
		<path d="M354.6,364.5c1.5-2.4,4.2-2.7,7.4-2.7c3.2,0,6.9,0.1,6.9,4.1c0,1.8-0.8,4.8-2.1,7c-1.4,2.2-4.7,2.4-7.3,2.4
			c-3.9,0-6.9-0.1-6.9-4.1C352.6,369.2,353.3,366.5,354.6,364.5z M359.1,367.2c-0.5,0.9-0.9,2.3-0.9,3c0,1.3,0.9,1.6,1.6,1.6
			c1.3,0,1.8-0.2,2.4-1.2c0.2-0.4,0.9-1.7,0.9-3.2c0-0.9-0.5-1.5-1.7-1.5C360.5,365.9,359.7,366,359.1,367.2z"/>
		<path d="M375.2,366.3h-3.6l1.1-4.2h12.7l-1.1,4.2h-3.6l-2.2,8.5H373L375.2,366.3z"/>
		<path d="M388.3,362.1h13.1l-1,4h-7.6l-0.4,1.4h7.6l-0.7,2.7h-7.6l-0.3,1.1h7.6l-0.9,3.4H385L388.3,362.1z"/>
		<path d="M414,374.5c-2.4,0.5-4.9,0.6-6.1,0.6c-3.8,0-5.6-0.7-5.6-3.7c0-1.8,1-6.2,2.6-7.9c1.5-1.5,3.7-1.8,5.7-1.8
			c2.2,0,4.3,0.3,6.5,0.7l-1.1,4.2c-1.1-0.2-2-0.2-3.1-0.2c-1.6,0-3,0.1-4,1c-0.5,0.4-0.9,1.3-0.9,2.4c0,1.3,0.9,1.6,2.8,1.6
			c1.4,0,2.7-0.3,4-0.5L414,374.5z"/>
		<path d="M422.3,366.3h-3.6l1.1-4.2h12.7l-1.1,4.2h-3.6l-2.2,8.5h-5.5L422.3,366.3z"/>
		<path d="M435.6,362.1h5.4l-3.4,12.7h-5.3L435.6,362.1z"/>
		<path d="M444.7,364.5c1.5-2.4,4.2-2.7,7.4-2.7c3.2,0,6.9,0.1,6.9,4.1c0,1.8-0.8,4.8-2.1,7c-1.4,2.2-4.7,2.4-7.3,2.4
			c-3.9,0-6.9-0.1-6.9-4.1C442.7,369.2,443.4,366.5,444.7,364.5z M449.2,367.2c-0.5,0.9-0.9,2.3-0.9,3c0,1.3,0.9,1.6,1.6,1.6
			c1.3,0,1.8-0.2,2.4-1.2c0.2-0.4,0.9-1.7,0.9-3.2c0-0.9-0.5-1.5-1.7-1.5C450.6,365.9,449.9,366,449.2,367.2z"/>
		<path d="M464,362.1h6.2l1.1,7.3h0l1.9-7.3h5.5l-3.4,12.7h-6l-1.5-6.6h0l-1.8,6.6h-5.5L464,362.1z"/>
		<path d="M498.9,373.7c-1.1,0.8-2.9,1.5-4.4,1.5c-2.1,0-4-0.9-4-3.2c0-2.9,3-3.9,5.6-4.6c-0.6-1-0.9-2.2-0.9-2.9
			c0-2.7,3.8-3.1,5.9-3.1c2.2,0,4.8,0.3,4.8,2.7c0,1.6-1.5,2.6-4.6,3.9l0.5,1l0.4-0.4h5.1l-4.2,3.1l1.5,3.1h-5.2L498.9,373.7z
			 M497,369.5c-1.4,0.6-1.8,1-1.8,1.8c0,0.5,0.4,0.8,0.9,0.8c0.6,0,1.2-0.3,1.8-0.6L497,369.5z M500.1,365.9
			c0.7-0.3,1.6-1.2,1.6-1.8c0-0.7-0.5-1-1.2-1c-0.7,0-1.1,0.4-1.1,1.1C499.5,364.6,499.8,365.4,500.1,365.9z"/>
		<path d="M532.3,374.5c-1.8,0.4-4.7,0.7-6.2,0.7c-3.2,0-6.4-0.1-6.4-3.9c0-1.4,0.7-7.7,4.6-8.9c1.6-0.5,3.1-0.6,4.5-0.6
			c2.3,0,4.5,0.3,6.7,0.8l-1,3.7c-1.2-0.1-2.5-0.3-3.8-0.3c-1,0-2.1,0-3.1,0.2c-1.6,0.4-2.4,2.5-2.4,4.2c0,1.6,1,1.6,2.3,1.6
			l0.9-3.3h5.4L532.3,374.5z"/>
		<path d="M539.2,362.1h10.5c2.4,0,2.9,1,2.9,2.8c0,3.2-1.8,4.6-4.1,4.6h-1l3.7,5.2h-6.3l-2.6-4.4l-1.1,4.4h-5.4L539.2,362.1z
			 M542.9,368.3h2.4c1.2,0,1.8-0.9,1.8-1.7c0-0.6-0.4-0.9-1.2-0.9h-2.4L542.9,368.3z"/>
		<path d="M560.5,362.1h9.5v12.7h-5.5v-1.8h-4.5l-1.1,1.8h-6.1L560.5,362.1z M564.6,365.3L564.6,365.3l-2.8,4.6h2.8V365.3z"/>
		<path d="M576,362.1h10c2.8,0,3.5,1,3.5,3.1c0,1.4-0.6,6.7-4.9,6.7h-5.8l-0.8,2.9h-5.4L576,362.1z M579.5,368.8h2.7
			c0.6,0,1.7-0.4,1.7-2c0-0.7-0.4-1-1.1-1h-2.5L579.5,368.8z"/>
		<path d="M594.6,362.1h5.4l-1.2,4.6h3.3l1.2-4.6h5.4l-3.4,12.7h-5.4l1.2-4.5h-3.3l-1.2,4.5h-5.4L594.6,362.1z"/>
		<path d="M613.2,362.1h5.4l-3.4,12.7h-5.3L613.2,362.1z"/>
		<path d="M631.6,374.5c-2.4,0.5-4.9,0.6-6.1,0.6c-3.8,0-5.6-0.7-5.6-3.7c0-1.8,1-6.2,2.6-7.9c1.5-1.5,3.7-1.8,5.7-1.8
			c2.2,0,4.3,0.3,6.5,0.7l-1.1,4.2c-1.1-0.2-2-0.2-3.1-0.2c-1.6,0-3,0.1-4,1c-0.5,0.4-0.9,1.3-0.9,2.4c0,1.3,0.9,1.6,2.8,1.6
			c1.4,0,2.7-0.3,4-0.5L631.6,374.5z"/>
		<path d="M645.4,371.4c2,0.2,4,0.4,6.1,0.4c0.6,0,1.8,0,1.8-0.8c0-0.6-0.3-0.7-3.5-0.7c-1.6,0-3.4-0.5-3.4-2.5
			c0-2.7,1.4-4.9,3.5-5.6c1.2-0.3,2.9-0.4,4.2-0.4c1.8,0,4.6,0.1,7.2,0.5l-1.1,3.9c-1.7-0.2-3.4-0.4-5.2-0.4c-2.1,0-2.6,0.3-2.6,0.9
			c0,0.5,0.4,0.7,3.1,0.7c2,0,3.8,0.1,3.8,2.7c0,1-0.5,2.4-0.8,3c-1.1,1.8-2.9,2.1-6.4,2.1c-2.8,0-5.3-0.2-7.6-0.6L645.4,371.4z"/>
		<path d="M664.8,364.5c1.5-2.4,4.2-2.7,7.4-2.7c3.2,0,6.9,0.1,6.9,4.1c0,1.8-0.8,4.8-2.1,7c-1.4,2.2-4.7,2.4-7.3,2.4
			c-3.9,0-6.9-0.1-6.9-4.1C662.8,369.2,663.6,366.5,664.8,364.5z M669.3,367.2c-0.5,0.9-0.9,2.3-0.9,3c0,1.3,0.9,1.6,1.6,1.6
			c1.3,0,1.8-0.2,2.4-1.2c0.2-0.4,0.9-1.7,0.9-3.2c0-0.9-0.5-1.5-1.7-1.5C670.7,365.9,670,366,669.3,367.2z"/>
		<path d="M683.8,362.1h5.5l-2.1,8.3h5.5l-1.1,4.3h-11L683.8,362.1z"/>
		<path d="M709.3,371.4c-0.9,3.2-3.5,3.7-8,3.7c-2.1,0-5.7-0.2-5.7-3c0-0.5,0.1-0.8,0.4-2.3l2.2-7.8h5.6l-2.1,7.5
			c-0.1,0.5-0.3,1.2-0.3,1.4c0,0.7,0.5,0.9,1.1,0.9c1,0,1.4-0.6,1.6-1.4l2.4-8.4h5.4L709.3,371.4z"/>
		<path d="M717.3,366.3h-3.6l1.1-4.2h12.7l-1.1,4.2h-3.6l-2.2,8.5h-5.5L717.3,366.3z"/>
		<path d="M730.7,362.1h5.4l-3.4,12.7h-5.3L730.7,362.1z"/>
		<path d="M739.8,364.5c1.5-2.4,4.2-2.7,7.4-2.7c3.2,0,6.9,0.1,6.9,4.1c0,1.8-0.8,4.8-2.1,7c-1.4,2.2-4.7,2.4-7.3,2.4
			c-3.9,0-6.9-0.1-6.9-4.1C737.7,369.2,738.5,366.5,739.8,364.5z M744.3,367.2c-0.5,0.9-0.9,2.3-0.9,3c0,1.3,0.9,1.6,1.6,1.6
			c1.3,0,1.8-0.2,2.4-1.2c0.2-0.4,0.9-1.7,0.9-3.2c0-0.9-0.5-1.5-1.7-1.5C745.6,365.9,744.9,366,744.3,367.2z"/>
		<path d="M759.1,362.1h6.2l1.1,7.3h0l1.9-7.3h5.5l-3.4,12.7h-6l-1.5-6.6h0l-1.8,6.6h-5.5L759.1,362.1z"/>
		<path d="M775.4,371.4c2,0.2,4,0.4,6.1,0.4c0.6,0,1.8,0,1.8-0.8c0-0.6-0.3-0.7-3.5-0.7c-1.6,0-3.4-0.5-3.4-2.5
			c0-2.7,1.4-4.9,3.5-5.6c1.2-0.3,2.9-0.4,4.2-0.4c1.8,0,4.6,0.1,7.2,0.5l-1.1,3.9c-1.7-0.2-3.4-0.4-5.2-0.4c-2.1,0-2.6,0.3-2.6,0.9
			c0,0.5,0.4,0.7,3.1,0.7c2,0,3.8,0.1,3.8,2.7c0,1-0.5,2.4-0.8,3c-1.1,1.8-2.9,2.1-6.4,2.1c-2.8,0-5.3-0.2-7.6-0.6L775.4,371.4z"/>
	</g>
	<polyline points="438.4,307.8 635.1,307.8 663.4,296 635.1,296 429.8,296 429.8,296.2 429.5,296.1 420.2,329.6 132.3,329.6 
		131.4,329.8 94.9,341.6 131.4,341.6 131.4,341.6 429.7,341.6 	"/>
	<g>
		<path d="M303.9,204.9h128.2l-7.8,25.6h-82.8l-14.4,47.8c-0.2,0.8,0,1.7,0.5,2.9c0.5,1.1,1.2,1.7,2,1.7c0.5,0,2.1,0,4.7,0
			s5.9,0,9.9-0.1c4,0,8.4-0.1,13.3-0.1c4.9,0,9.8-0.1,14.8-0.1c5,0,9.8,0,14.5-0.1c4.7,0,8.8-0.1,12.4-0.1c3.6,0,6.4,0,8.4,0.1
			c2.1,0.1,2.9,0.1,2.6,0.2l-7.3,24.8H294.7c-1.2,0-2.4-0.2-3.8-0.6c-1.4-0.4-2.7-0.9-4-1.6c-1.3-0.7-2.5-1.5-3.6-2.3
			c-1.1-0.9-2-1.8-2.6-2.8c-1.4-2.1-2.6-4.5-3.7-7.2c-1.1-2.6-1.7-7.8-0.9-10.2L303.9,204.9z"/>
	</g>
	<path d="M411.6,319.1h-117c-2.3,0-4.6-0.3-7-1c-2.1-0.6-4.2-1.4-6.2-2.5c-2-1-3.9-2.3-5.6-3.7c-0.5-0.4-0.9-0.8-1.4-1.2l-3,8.2
		h-64.5l-4.7-25.1l-9.1,25.1h-61.8l45.7-125.5h64.5l4.9,25.6l9.4-25.6h38.7l0.1-0.2h153.2l-14,46.3l14.9-16.9h21
		c3,0,5.9,0.9,8.5,2.5c1.9,1.2,3.4,2.6,4.7,4.2l0.1,0.1c0.3,0.4,0.5,0.7,0.8,1.1c0.1-0.3,0.2-0.6,0.3-0.9l3-7.1h54.4l0,0l8.5,0
		l104,0c3.1,0,6,0.9,8.5,2.5c2.3,1.5,4.2,3.7,5.4,6.3c1.1,2.4,1.6,5,1.5,7.7c-0.1,2.1-0.6,4.1-1.4,6.1l-14.1,44.5h-53
		c-0.2,0-0.4,0-0.6,0c-2.3,0-4.5-0.4-6.5-1.1c-2.6-1-4.9-2.5-6.6-4.6c-1.1-1.3-2-2.8-2.6-4.4c-0.2,0.6-0.4,1.2-0.6,1.9l-2.5,8.2h-91
		c-0.3,0-0.6,0-0.8,0h-35.3l-2.2-8l-8.5,0.1l-7,7.9h-16.3l-0.2,0.7L411.6,319.1z M272.6,298.7l3.3,4.7c1,1.4,2.2,2.7,3.7,3.9
		c1.4,1.1,2.9,2.1,4.6,3c1.7,0.9,3.4,1.5,5.1,2c1.9,0.5,3.7,0.8,5.4,0.8h112.6l7.2-24.4l1.2-5h18.3l7-7.9l15.6-0.1l2.2,8l30.9,0
		c0.1,0,0.1,0,0.2,0c0.1,0,0.3,0,0.4,0l0.1,0H539l9.9-31.3h7.2l-9.3,31.3H577l1.2-4.1c1.8-5.8,3.4-11.1,4.8-15.7
		c0.6-1.9,1.1-3.8,1.7-5.7c0.4-1.3,0.8-2.5,1.1-3.7l0.6-2.1h7.9l-1,3.7c-1.2,4.4-2.4,9.3-3.8,14.6l0,0.2l0,0.2
		c-0.3,1.5-0.3,3-0.1,4.4c0.3,1.7,1,3.3,2.1,4.6c1.1,1.3,2.5,2.3,4.2,2.9c1.3,0.5,2.8,0.8,4.4,0.8c0.1,0,0.3,0,0.4,0l0.1,0h48.8
		l12.9-40.7l0.1-0.1c0.6-1.4,0.9-2.8,1-4.2c0.1-1.7-0.2-3.4-0.9-4.9c-0.7-1.6-1.9-2.9-3.3-3.8c-1.5-1-3.3-1.5-5.2-1.5H550l-4.2,0
		l0,0H491l-1.5,3.5c-0.2,0.5-0.5,1.2-1,3.1c-0.4,1.3-0.8,2.9-1.2,4.6l0,0l-3,10.8l-3.1-12.3l-0.2-0.4c-0.4-0.8-0.8-1.7-1.3-2.5
		c-0.5-0.8-1-1.5-1.5-2.2l0-0.1c-0.9-1.1-1.9-2.1-3.2-2.9c-1.7-1.1-3.5-1.6-5.3-1.6h-18.3l-42.5,48.2l-1.4,0c-2.1,0-4.9-0.1-8.3-0.1
		c-3.5,0-7.6,0-12.4,0.1c-4.6,0-9.4,0.1-14.4,0.1c-4.9,0-9.9,0-14.9,0.1c-5.1,0.1-9.4,0.1-13.3,0.1c-2.4,0-4.6,0.1-6.7,0.1l-4,0
		l12.3-40.8h82.8l11.2-37.1H298.8l-0.1,0.2H260l-15.3,41.8l-8-41.8h-55.5L139.8,313h49.3l15-41.5l7.8,41.5h55.5L272.6,298.7z
		 M350.2,242.2l-8.7,29c0.9,0,1.7,0,2.6,0c3.9,0,8.2-0.1,13.3-0.1c5,0,10-0.1,14.9-0.1c5,0,9.8,0,14.4-0.1c4.8,0,8.9-0.1,12.5-0.1
		c2.7,0,5.1,0,7,0l25.2-28.6H350.2z"/>
	<g>
		<g>
			<g>
				<path d="M602.3,240.5c0.3-0.8,0.5-1.6,0.8-2.3c0.2-0.8,0.5-1.4,0.7-2c0.2-0.6,0.4-1.2,0.7-1.9c0,0-0.8,0.1-2.3,0.1
					c-1.6,0-3.6,0-6.2,0c-2.5,0-5.4,0-8.7,0c-3.3,0-6.6,0-10,0c-8,0-17.1,0-27.2-0.1l-4.1,12.5h18.1l-9.3,31.3h18.1
					c1.8-5.9,3.4-11.1,4.8-15.7c0.6-2,1.2-3.9,1.7-5.8c0.6-1.9,1.1-3.5,1.5-5c0.4-1.5,0.9-3.1,1.5-4.8h18.1
					C601,244.4,601.7,242.3,602.3,240.5z"/>
			</g>
			<g>
				<path d="M478.8,252.6c-0.5-2.3-1-4.3-1.4-6.1c-0.4-1.8-0.8-3.3-1.1-4.4c-0.3-1.2-0.5-1.8-0.5-2c-0.2-0.6-0.6-1.2-0.9-1.8
					c-0.4-0.6-0.7-1.1-1.2-1.7c-0.5-0.6-1.1-1.1-1.8-1.6c-0.7-0.5-1.5-0.7-2.2-0.7h-15.8l-38.6,43.8h15.9l6.9-7.9l22.6-0.2l2.3,8.1
					h21.4c-1.5-6.9-2.9-13.1-4.2-18.6C479.8,257.2,479.3,254.9,478.8,252.6z M448,259.1l8.1-9.1l2.3,9.1L448,259.1z"/>
			</g>
			<g>
				<path d="M547.3,238.5c0.1-0.8,0-1.5-0.3-2.2c-0.3-0.6-0.7-1.1-1.3-1.5c-0.6-0.4-1.3-0.6-2.2-0.6h-12.5l-10.6,33.3h-14.1
					c-0.6,0-1.1-0.2-1.6-0.7c-0.5-0.5-0.6-1.2-0.3-2.1c0-0.2,0.2-0.7,0.5-1.7c0.3-1,0.6-2.2,1-3.7c0.4-1.5,0.8-3.1,1.3-4.9
					c0.5-1.8,1-3.6,1.5-5.5c1.2-4.4,2.5-9.3,3.9-14.7h-17.9c-0.1,0.3-0.4,1.1-0.7,2.3c-0.3,1.3-0.7,2.8-1.3,4.6
					c-0.5,1.8-1,3.8-1.6,6.1c-0.6,2.3-1.2,4.5-1.8,6.8c-1.4,5.4-3,11.4-4.8,18.1c-0.2,0.8-0.2,1.6-0.1,2.3c0.1,0.7,0.4,1.3,0.9,1.9
					c0.5,0.5,1.1,1,1.8,1.3c0.8,0.3,1.7,0.4,2.8,0.4h44.7l11.8-37C547,240.2,547.2,239.3,547.3,238.5z"/>
			</g>
			<g>
				<path d="M657.3,236.4c-0.3-0.6-0.7-1.1-1.3-1.5c-0.6-0.4-1.2-0.6-2-0.6h-44.3c-1.1,0-2.1,0.4-3.2,1.1c-1,0.8-1.9,2-2.5,3.8
					c-0.1,0.3-0.3,1-0.6,2.1c-0.3,1.1-0.7,2.4-1.1,4c-0.4,1.6-0.9,3.4-1.4,5.3c-0.5,2-1.1,3.9-1.6,5.9c-1.3,4.7-2.6,9.9-4.1,15.7
					c-0.2,0.8-0.2,1.6-0.1,2.3c0.1,0.7,0.4,1.3,0.9,1.9c0.5,0.5,1.1,1,1.8,1.3c0.8,0.3,1.7,0.4,2.8,0.4h44.7l11.8-37
					c0.4-0.9,0.6-1.7,0.7-2.5C657.7,237.7,657.6,237,657.3,236.4z M630.9,267.6h-14.1c-0.6,0-1.1-0.2-1.6-0.7
					c-0.5-0.5-0.6-1.2-0.3-2.1c0-0.2,0.2-0.6,0.3-1.3c0.2-0.7,0.4-1.5,0.7-2.5c0.3-1,0.6-2.1,0.9-3.2c0.3-1.2,0.7-2.4,1-3.6
					c0.8-2.8,1.6-6,2.6-9.4H638L630.9,267.6z"/>
			</g>
		</g>
		<g>
			<path d="M185.3,205.1H232l11,57.5l21-57.5h36.7l-37.2,102.3h-46.7l-10.8-57.5l-20.8,57.5h-37L185.3,205.1z"/>
		</g>
	</g>
</g>
</svg>
